<svg width="1496" height="734" viewBox="0 0 1496 734" fill="none" xmlns="http://www.w3.org/2000/svg">
<g clip-path="url(#clip0_2_2)">
<rect width="1496" height="734" fill="#0E0034"/>
<g opacity="0.5" filter="url(#filter0_d_2_2)">
<ellipse cx="675.5" cy="318.5" rx="460.5" ry="475.5" fill="url(#paint0_linear_2_2)"/>
</g>
<g opacity="0.5" filter="url(#filter1_d_2_2)">
<ellipse cx="301.411" cy="256.731" rx="509.411" ry="475.731" fill="url(#paint1_linear_2_2)"/>
</g>
<g opacity="0.5" filter="url(#filter2_d_2_2)">
<ellipse cx="193" cy="156.785" rx="336" ry="313.785" fill="url(#paint2_linear_2_2)"/>
</g>
<g filter="url(#filter3_d_2_2)">
<ellipse cx="104.942" cy="80.5" rx="157.942" ry="147.5" fill="url(#paint3_linear_2_2)"/>
</g>
<g opacity="0.2">
<path d="M-655.622 -39.4525C-593.738 -50.8938 -284.444 -212.264 450.175 242.451C1184.79 697.165 1443.98 679.206 1631.05 486.127" stroke="url(#paint4_linear_2_2)" stroke-width="1.11256" stroke-miterlimit="10"/>
<path d="M-651.761 -47.8694C-592.815 -58.7822 -282.863 -205.663 443.891 249.655C1170.64 704.973 1447.55 659.395 1625.81 475.498" stroke="url(#paint5_linear_2_2)" stroke-width="1.11256" stroke-miterlimit="10"/>
<path d="M-647.863 -56.2616C-591.869 -66.6301 -281.343 -198.967 437.547 257.264C1156.44 713.495 1451.05 640.352 1620.39 465.644" stroke="url(#paint6_linear_2_2)" stroke-width="1.11256" stroke-miterlimit="10"/>
<path d="M-643.96 -64.6629C-590.908 -74.4841 -279.834 -192.273 431.208 264.864C1142.25 722.001 1454.54 621.299 1614.97 455.792" stroke="url(#paint7_linear_2_2)" stroke-width="1.11256" stroke-miterlimit="10"/>
<path d="M-640.058 -73.0681C-589.958 -82.345 -278.311 -185.59 424.871 272.449C1128.05 730.489 1458.04 602.233 1609.55 445.915" stroke="url(#paint8_linear_2_2)" stroke-width="1.11256" stroke-miterlimit="10"/>
<path d="M-636.17 -81.4628C-589.011 -90.1925 -276.805 -178.887 418.507 280.053C1113.82 738.992 1461.51 583.184 1604.11 436.066" stroke="url(#paint9_linear_2_2)" stroke-width="1.11256" stroke-miterlimit="10"/>
<path d="M-632.267 -89.8679C-588.06 -98.0532 -275.284 -172.193 412.169 287.649C1099.62 747.491 1465.01 564.128 1598.69 426.199" stroke="url(#paint10_linear_2_2)" stroke-width="1.11256" stroke-miterlimit="10"/>
<path d="M-628.365 -98.2699C-587.1 -105.908 -273.761 -165.508 405.831 295.237C1085.42 755.982 1468.51 545.064 1593.27 416.336" stroke="url(#paint11_linear_2_2)" stroke-width="1.11256" stroke-miterlimit="10"/>
<path d="M-624.462 -106.675C-586.149 -113.769 -272.251 -158.817 399.493 302.833C1071.24 764.484 1471.99 526.005 1587.87 406.472" stroke="url(#paint12_linear_2_2)" stroke-width="1.11256" stroke-miterlimit="10"/>
<path d="M-620.563 -115.067C-585.191 -121.613 -270.732 -152.121 393.139 310.44C1057.01 773.001 1475.48 506.959 1582.43 396.626" stroke="url(#paint13_linear_2_2)" stroke-width="1.11256" stroke-miterlimit="10"/>
<path d="M-616.661 -123.47C-584.242 -129.472 -269.212 -145.426 386.802 318.027C1042.82 781.48 1478.97 487.894 1577.02 386.751" stroke="url(#paint14_linear_2_2)" stroke-width="1.11256" stroke-miterlimit="10"/>
<path d="M-612.769 -131.877C-583.302 -137.335 -267.709 -138.748 380.453 325.621C1028.62 789.991 1482.46 468.836 1571.59 376.893" stroke="url(#paint15_linear_2_2)" stroke-width="1.11256" stroke-miterlimit="10"/>
<path d="M-608.87 -140.27C-582.344 -145.181 -266.192 -132.043 374.111 333.229C1014.41 798.501 1485.95 449.792 1566.17 367.038" stroke="url(#paint16_linear_2_2)" stroke-width="1.11256" stroke-miterlimit="10"/>
<path d="M-604.967 -148.675C-581.393 -153.042 -264.668 -125.36 367.764 340.812C1000.2 806.983 1489.44 430.733 1560.74 357.168" stroke="url(#paint17_linear_2_2)" stroke-width="1.11256" stroke-miterlimit="10"/>
<path d="M-601.065 -157.078C-580.432 -160.897 -263.149 -118.664 361.424 348.41C985.997 815.485 1492.92 411.676 1555.32 347.304" stroke="url(#paint18_linear_2_2)" stroke-width="1.11256" stroke-miterlimit="10"/>
<path d="M-597.165 -165.472C-579.484 -168.747 -261.639 -111.974 355.083 356.017C971.804 824.008 1496.42 392.631 1549.9 337.459" stroke="url(#paint19_linear_2_2)" stroke-width="1.11256" stroke-miterlimit="10"/>
<path d="M-593.263 -173.874C-578.524 -176.602 -260.119 -105.278 348.743 363.616C957.604 832.509 1499.91 373.564 1544.47 327.592" stroke="url(#paint20_linear_2_2)" stroke-width="1.11256" stroke-miterlimit="10"/>
<path d="M-589.373 -182.28C-577.586 -184.463 -258.611 -98.5847 342.383 371.198C943.377 840.981 1503.4 354.51 1539.05 317.728" stroke="url(#paint21_linear_2_2)" stroke-width="1.11256" stroke-miterlimit="10"/>
<path d="M-585.47 -190.683C-576.624 -192.319 -257.097 -91.9031 336.045 378.796C929.188 849.495 1506.89 335.453 1533.62 307.871" stroke="url(#paint22_linear_2_2)" stroke-width="1.11256" stroke-miterlimit="10"/>
<path d="M-581.57 -199.078C-575.677 -200.17 -255.58 -85.1999 329.703 386.402C914.985 858.003 1510.38 316.396 1528.2 298.004" stroke="url(#paint23_linear_2_2)" stroke-width="1.11256" stroke-miterlimit="10"/>
<path d="M-577.669 -207.478C-574.716 -208.023 -254.058 -78.5122 323.366 393.992C900.789 866.497 1513.87 297.342 1522.78 288.152" stroke="url(#paint24_linear_2_2)" stroke-width="1.11256" stroke-miterlimit="10"/>
<path d="M-573.766 -215.884C-573.766 -215.884 -252.538 -71.8193 317.015 401.585C886.568 874.989 1517.35 278.283 1517.35 278.283" stroke="#F0EFEF" stroke-width="1.11256" stroke-miterlimit="10"/>
<path d="M-574.864 -198.37C-573.226 -199.371 -237.157 -79.4556 321.785 388.078C880.728 855.612 1488.77 311.009 1507.51 311.024" stroke="#F0EFEF" stroke-width="1.11256" stroke-miterlimit="10"/>
<path d="M-575.966 -180.844C-572.69 -182.846 -221.773 -87.0658 326.548 374.595C874.869 836.256 1460.19 343.742 1497.66 343.769" stroke="#F0EFEF" stroke-width="1.11256" stroke-miterlimit="10"/>
<path d="M-577.064 -163.327C-572.15 -166.33 -206.385 -94.6859 331.307 361.088C868.998 816.862 1431.62 376.451 1487.82 376.513" stroke="#F0EFEF" stroke-width="1.11256" stroke-miterlimit="10"/>
<path d="M-578.161 -145.816C-571.62 -149.823 -190.994 -102.322 336.073 347.589C863.141 797.501 1403.02 409.172 1477.97 409.25" stroke="#F0EFEF" stroke-width="1.11256" stroke-miterlimit="10"/>
<path d="M-579.261 -128.299C-571.082 -133.307 -175.607 -109.941 340.841 334.087C857.29 778.114 1374.44 441.892 1468.12 441.985" stroke="#F0EFEF" stroke-width="1.11256" stroke-miterlimit="10"/>
<path d="M-580.348 -110.781C-570.531 -116.79 -160.216 -117.573 345.608 320.592C851.433 758.757 1345.86 474.623 1458.28 474.728" stroke="#F0EFEF" stroke-width="1.11256" stroke-miterlimit="10"/>
<path d="M-581.446 -93.2692C-569.991 -100.279 -144.828 -125.198 350.374 307.094C845.577 739.385 1317.28 507.338 1448.43 507.468" stroke="#F0EFEF" stroke-width="1.11256" stroke-miterlimit="10"/>
<path d="M-582.544 -75.753C-569.451 -83.7639 -129.438 -132.829 355.144 293.59C839.725 720.008 1288.7 540.057 1438.58 540.199" stroke="#F0EFEF" stroke-width="1.11256" stroke-miterlimit="10"/>
<path d="M-583.646 -58.2286C-568.914 -67.2406 -114.053 -140.441 359.91 280.094C833.872 700.628 1260.11 572.784 1428.74 572.941" stroke="#F0EFEF" stroke-width="1.11256" stroke-miterlimit="10"/>
<path d="M-584.743 -40.7133C-568.374 -50.7262 -98.6649 -148.062 364.666 266.596C827.996 681.255 1231.53 605.512 1418.88 605.682" stroke="#F0EFEF" stroke-width="1.11256" stroke-miterlimit="10"/>
<path d="M-585.842 -23.1971C-567.835 -34.2111 -83.2748 -155.693 369.434 253.092C822.143 661.878 1202.95 638.221 1409.04 638.416" stroke="#F0EFEF" stroke-width="1.11256" stroke-miterlimit="10"/>
<path d="M-586.929 -5.6807C-567.294 -17.6986 -67.8865 -163.316 374.212 239.599C816.31 642.514 1174.38 670.95 1399.2 671.17" stroke="#F0EFEF" stroke-width="1.11256" stroke-miterlimit="10"/>
<path d="M-588.027 11.8349C-566.755 -1.18402 -52.4963 -170.947 378.97 226.091C810.436 623.13 1145.78 703.666 1389.35 703.901" stroke="#F0EFEF" stroke-width="1.11256" stroke-miterlimit="10"/>
<path d="M-589.127 29.3524C-566.217 15.3325 -37.1098 -178.567 383.735 212.599C804.58 603.764 1117.21 736.4 1379.5 736.647" stroke="#F0EFEF" stroke-width="1.11256" stroke-miterlimit="10"/>
<path d="M-590.224 46.8639C-565.676 31.843 -21.7208 -186.192 388.505 199.09C798.731 584.372 1088.63 769.104 1369.66 769.376" stroke="#F0EFEF" stroke-width="1.11256" stroke-miterlimit="10"/>
<path d="M-591.322 64.3799C-565.136 48.358 -6.33 -193.823 393.261 185.593C792.852 565.009 1060.03 801.83 1359.81 802.117" stroke="#F0EFEF" stroke-width="1.11256" stroke-miterlimit="10"/>
<path d="M-592.424 81.9056C-564.599 64.8827 9.04339 -201.437 398.027 172.099C787.01 545.634 1031.45 834.558 1349.96 834.861" stroke="#F0EFEF" stroke-width="1.11256" stroke-miterlimit="10"/>
<path d="M-593.51 99.4221C-564.048 81.3982 24.4454 -209.067 402.804 158.605C781.163 526.278 1002.89 867.291 1340.12 867.602" stroke="#F0EFEF" stroke-width="1.11256" stroke-miterlimit="10"/>
<path d="M-594.609 116.937C-563.52 97.9096 39.8325 -216.688 407.562 145.098C775.291 506.884 974.296 899.996 1330.27 900.333" stroke="#F0EFEF" stroke-width="1.11256" stroke-miterlimit="10"/>
<path d="M-595.708 134.453C-562.981 114.424 55.2199 -224.31 412.328 131.603C769.436 487.516 945.71 932.724 1320.42 933.076" stroke="#F0EFEF" stroke-width="1.11256" stroke-miterlimit="10"/>
<path d="M-596.806 151.966C-562.441 130.936 70.6102 -231.943 417.097 118.096C763.583 468.136 917.128 965.441 1310.58 965.818" stroke="#F0EFEF" stroke-width="1.11256" stroke-miterlimit="10"/>
</g>
<path d="M1047.72 141.5C1045.89 141.5 1044.18 141.167 1042.58 140.5C1040.99 139.815 1039.58 138.88 1038.36 137.694C1037.16 136.509 1036.21 135.13 1035.53 133.556C1034.84 131.981 1034.5 130.296 1034.5 128.5C1034.5 126.704 1034.84 125.019 1035.53 123.444C1036.21 121.87 1037.16 120.491 1038.36 119.306C1039.58 118.12 1040.99 117.194 1042.58 116.528C1044.18 115.843 1045.89 115.5 1047.72 115.5C1049.37 115.5 1050.93 115.769 1052.39 116.306C1053.85 116.843 1055.16 117.602 1056.31 118.583L1054.89 124.417C1054.2 123.269 1053.26 122.306 1052.06 121.528C1050.85 120.731 1049.46 120.333 1047.89 120.333C1046.39 120.333 1045.03 120.704 1043.81 121.444C1042.6 122.167 1041.65 123.148 1040.94 124.389C1040.24 125.611 1039.89 126.981 1039.89 128.5C1039.89 130 1040.24 131.37 1040.94 132.611C1041.65 133.852 1042.6 134.843 1043.81 135.583C1045.03 136.306 1046.39 136.667 1047.89 136.667C1049.44 136.667 1050.82 136.278 1052.03 135.5C1053.25 134.704 1054.2 133.731 1054.89 132.583L1056.31 138.417C1055.14 139.38 1053.82 140.139 1052.36 140.694C1050.92 141.231 1049.37 141.5 1047.72 141.5ZM1059.01 141V124.333H1063.35V127.194C1063.92 126.231 1064.64 125.491 1065.51 124.972C1066.4 124.435 1067.44 124.167 1068.62 124.167L1069.68 128.444C1069.33 128.333 1068.93 128.278 1068.49 128.278C1067.1 128.278 1065.98 128.731 1065.12 129.639C1064.27 130.528 1063.85 131.806 1063.85 133.472V141H1059.01ZM1079.88 141.556C1078.01 141.556 1076.36 141.167 1074.93 140.389C1073.51 139.611 1072.4 138.546 1071.6 137.194C1070.8 135.824 1070.41 134.259 1070.41 132.5C1070.41 130.815 1070.8 129.324 1071.57 128.028C1072.35 126.713 1073.4 125.676 1074.71 124.917C1076.05 124.157 1077.52 123.778 1079.13 123.778C1080.78 123.778 1082.25 124.157 1083.55 124.917C1084.84 125.657 1085.86 126.676 1086.6 127.972C1087.36 129.269 1087.74 130.741 1087.74 132.389V134.083H1077.57C1077.11 134.083 1076.67 134.056 1076.24 134C1075.81 133.944 1075.39 133.88 1074.96 133.806C1075.18 134.917 1075.73 135.824 1076.6 136.528C1077.49 137.213 1078.62 137.556 1079.99 137.556C1081.05 137.556 1081.99 137.343 1082.82 136.917C1083.67 136.491 1084.37 135.963 1084.91 135.333L1085.96 139.667C1085.13 140.296 1084.18 140.769 1083.13 141.083C1082.09 141.398 1081.01 141.556 1079.88 141.556ZM1074.85 130.889C1075.78 130.685 1076.68 130.583 1077.57 130.583H1080.52C1081.04 130.583 1081.53 130.602 1081.99 130.639C1082.45 130.676 1082.89 130.741 1083.3 130.833C1083.02 129.833 1082.51 129.046 1081.77 128.472C1081.05 127.898 1080.15 127.611 1079.07 127.611C1078.05 127.611 1077.17 127.907 1076.41 128.5C1075.67 129.074 1075.15 129.87 1074.85 130.889ZM1097.92 141.444C1096.38 141.444 1094.98 141.046 1093.72 140.25C1092.47 139.454 1091.46 138.398 1090.7 137.083C1089.96 135.75 1089.59 134.278 1089.59 132.667C1089.59 131.056 1089.96 129.583 1090.7 128.25C1091.46 126.917 1092.47 125.861 1093.72 125.083C1094.98 124.287 1096.38 123.889 1097.92 123.889C1098.99 123.889 1099.97 124.083 1100.86 124.472C1101.75 124.843 1102.51 125.361 1103.14 126.028V124.333H1107.31V141H1103.14V139.306C1102.51 139.972 1101.75 140.5 1100.86 140.889C1099.97 141.259 1098.99 141.444 1097.92 141.444ZM1098.5 137.194C1099.32 137.194 1100.06 136.991 1100.72 136.583C1101.39 136.176 1101.92 135.63 1102.31 134.944C1102.72 134.259 1102.92 133.5 1102.92 132.667C1102.92 131.833 1102.72 131.074 1102.31 130.389C1101.92 129.704 1101.39 129.157 1100.72 128.75C1100.06 128.343 1099.32 128.139 1098.5 128.139C1097.69 128.139 1096.95 128.343 1096.28 128.75C1095.61 129.157 1095.08 129.704 1094.67 130.389C1094.28 131.074 1094.09 131.833 1094.09 132.667C1094.09 133.5 1094.28 134.259 1094.67 134.944C1095.08 135.63 1095.61 136.176 1096.28 136.583C1096.95 136.991 1097.69 137.194 1098.5 137.194ZM1112.91 141V128.167H1109.8V124.333H1112.99V118.778H1117.66V124.333H1120.97V128.167H1117.74V141H1112.91ZM1131.28 141.556C1129.41 141.556 1127.77 141.167 1126.34 140.389C1124.91 139.611 1123.8 138.546 1123.01 137.194C1122.21 135.824 1121.81 134.259 1121.81 132.5C1121.81 130.815 1122.2 129.324 1122.98 128.028C1123.76 126.713 1124.8 125.676 1126.12 124.917C1127.45 124.157 1128.92 123.778 1130.53 123.778C1132.18 123.778 1133.66 124.157 1134.95 124.917C1136.25 125.657 1137.27 126.676 1138.01 127.972C1138.77 129.269 1139.15 130.741 1139.15 132.389V134.083H1128.98C1128.52 134.083 1128.07 134.056 1127.65 134C1127.22 133.944 1126.79 133.88 1126.37 133.806C1126.59 134.917 1127.14 135.824 1128.01 136.528C1128.9 137.213 1130.03 137.556 1131.4 137.556C1132.45 137.556 1133.4 137.343 1134.23 136.917C1135.08 136.491 1135.78 135.963 1136.31 135.333L1137.37 139.667C1136.53 140.296 1135.59 140.769 1134.53 141.083C1133.5 141.398 1132.41 141.556 1131.28 141.556ZM1126.26 130.889C1127.18 130.685 1128.09 130.583 1128.98 130.583H1131.92C1132.44 130.583 1132.93 130.602 1133.4 130.639C1133.86 130.676 1134.29 130.741 1134.7 130.833C1134.42 129.833 1133.91 129.046 1133.17 128.472C1132.45 127.898 1131.55 127.611 1130.48 127.611C1129.46 127.611 1128.57 127.907 1127.81 128.5C1127.07 129.074 1126.55 129.87 1126.26 130.889ZM1149.73 149.333L1155.28 138.167L1148.48 124.333H1153.81L1156.76 130.444C1157.02 131 1157.24 131.509 1157.42 131.972C1157.63 132.417 1157.79 132.852 1157.92 133.278C1158.07 132.852 1158.25 132.417 1158.45 131.972C1158.66 131.509 1158.9 131 1159.17 130.444L1162.17 124.333H1167.31L1154.92 149.333H1149.73ZM1176.67 141.556C1175.02 141.556 1173.51 141.157 1172.14 140.361C1170.77 139.565 1169.68 138.491 1168.87 137.139C1168.07 135.787 1167.67 134.296 1167.67 132.667C1167.67 131.019 1168.07 129.528 1168.87 128.194C1169.68 126.843 1170.77 125.769 1172.14 124.972C1173.51 124.176 1175.02 123.778 1176.67 123.778C1178.34 123.778 1179.85 124.176 1181.2 124.972C1182.57 125.769 1183.65 126.843 1184.45 128.194C1185.26 129.528 1185.67 131.019 1185.67 132.667C1185.67 134.296 1185.26 135.787 1184.45 137.139C1183.65 138.491 1182.57 139.565 1181.2 140.361C1179.85 141.157 1178.34 141.556 1176.67 141.556ZM1176.67 137.222C1177.51 137.222 1178.26 137.019 1178.92 136.611C1179.61 136.204 1180.14 135.657 1180.53 134.972C1180.94 134.269 1181.14 133.5 1181.14 132.667C1181.14 131.815 1180.94 131.046 1180.53 130.361C1180.14 129.676 1179.61 129.13 1178.92 128.722C1178.26 128.315 1177.51 128.111 1176.67 128.111C1175.84 128.111 1175.08 128.315 1174.39 128.722C1173.73 129.13 1173.19 129.676 1172.78 130.361C1172.39 131.046 1172.2 131.815 1172.2 132.667C1172.2 133.5 1172.39 134.269 1172.78 134.972C1173.19 135.657 1173.73 136.204 1174.39 136.611C1175.08 137.019 1175.84 137.222 1176.67 137.222ZM1194.95 141.556C1193.78 141.556 1192.68 141.278 1191.64 140.722C1190.61 140.148 1189.76 139.324 1189.12 138.25C1188.49 137.157 1188.17 135.843 1188.17 134.306V124.333H1193.01V133.667C1193.01 134.593 1193.28 135.417 1193.84 136.139C1194.41 136.861 1195.21 137.222 1196.23 137.222C1197.06 137.222 1197.8 136.926 1198.45 136.333C1199.12 135.722 1199.45 134.852 1199.45 133.722V124.333H1204.28V141H1199.89V139.25C1199.3 139.991 1198.57 140.565 1197.7 140.972C1196.85 141.361 1195.93 141.556 1194.95 141.556ZM1207.96 141V124.333H1212.29V127.194C1212.87 126.231 1213.59 125.491 1214.46 124.972C1215.35 124.435 1216.38 124.167 1217.57 124.167L1218.62 128.444C1218.27 128.333 1217.88 128.278 1217.43 128.278C1216.04 128.278 1214.92 128.731 1214.07 129.639C1213.22 130.528 1212.79 131.806 1212.79 133.472V141H1207.96ZM1236.55 141.444C1235.02 141.444 1233.62 141.046 1232.36 140.25C1231.1 139.454 1230.09 138.398 1229.33 137.083C1228.59 135.75 1228.22 134.278 1228.22 132.667C1228.22 131.056 1228.59 129.583 1229.33 128.25C1230.09 126.917 1231.1 125.861 1232.36 125.083C1233.62 124.287 1235.02 123.889 1236.55 123.889C1237.63 123.889 1238.61 124.083 1239.5 124.472C1240.39 124.843 1241.14 125.361 1241.77 126.028V124.333H1245.94V141H1241.77V139.306C1241.14 139.972 1240.39 140.5 1239.5 140.889C1238.61 141.259 1237.63 141.444 1236.55 141.444ZM1237.14 137.194C1237.95 137.194 1238.69 136.991 1239.36 136.583C1240.02 136.176 1240.55 135.63 1240.94 134.944C1241.35 134.259 1241.55 133.5 1241.55 132.667C1241.55 131.833 1241.35 131.074 1240.94 130.389C1240.55 129.704 1240.02 129.157 1239.36 128.75C1238.69 128.343 1237.95 128.139 1237.14 128.139C1236.32 128.139 1235.58 128.343 1234.91 128.75C1234.25 129.157 1233.71 129.704 1233.3 130.389C1232.91 131.074 1232.72 131.833 1232.72 132.667C1232.72 133.5 1232.91 134.259 1233.3 134.944C1233.71 135.63 1234.25 136.176 1234.91 136.583C1235.58 136.991 1236.32 137.194 1237.14 137.194ZM1257.77 141.556C1256.12 141.556 1254.61 141.157 1253.24 140.361C1251.87 139.565 1250.77 138.491 1249.96 137.139C1249.16 135.787 1248.77 134.296 1248.77 132.667C1248.77 131.019 1249.16 129.528 1249.96 128.194C1250.77 126.843 1251.87 125.769 1253.24 124.972C1254.61 124.176 1256.12 123.778 1257.77 123.778C1258.91 123.778 1260 123.972 1261.02 124.361C1262.05 124.731 1262.97 125.287 1263.77 126.028L1262.52 130.944C1262.05 130.185 1261.43 129.528 1260.65 128.972C1259.9 128.398 1259 128.111 1257.96 128.111C1257.09 128.111 1256.31 128.315 1255.63 128.722C1254.94 129.13 1254.4 129.676 1254.02 130.361C1253.63 131.046 1253.43 131.815 1253.43 132.667C1253.43 133.5 1253.63 134.269 1254.02 134.972C1254.4 135.657 1254.94 136.204 1255.63 136.611C1256.31 137.019 1257.09 137.222 1257.96 137.222C1259 137.222 1259.9 136.944 1260.65 136.389C1261.43 135.815 1262.05 135.148 1262.52 134.389L1263.77 139.306C1262.97 140.046 1262.05 140.611 1261.02 141C1260 141.37 1258.91 141.556 1257.77 141.556ZM1274.45 141.556C1272.8 141.556 1271.29 141.157 1269.92 140.361C1268.55 139.565 1267.45 138.491 1266.64 137.139C1265.84 135.787 1265.45 134.296 1265.45 132.667C1265.45 131.019 1265.84 129.528 1266.64 128.194C1267.45 126.843 1268.55 125.769 1269.92 124.972C1271.29 124.176 1272.8 123.778 1274.45 123.778C1275.59 123.778 1276.68 123.972 1277.7 124.361C1278.73 124.731 1279.65 125.287 1280.45 126.028L1279.2 130.944C1278.73 130.185 1278.11 129.528 1277.33 128.972C1276.57 128.398 1275.68 128.111 1274.64 128.111C1273.77 128.111 1272.99 128.315 1272.31 128.722C1271.62 129.13 1271.08 129.676 1270.7 130.361C1270.31 131.046 1270.11 131.815 1270.11 132.667C1270.11 133.5 1270.31 134.269 1270.7 134.972C1271.08 135.657 1271.62 136.204 1272.31 136.611C1272.99 137.019 1273.77 137.222 1274.64 137.222C1275.68 137.222 1276.57 136.944 1277.33 136.389C1278.11 135.815 1278.73 135.148 1279.2 134.389L1280.45 139.306C1279.65 140.046 1278.73 140.611 1277.7 141C1276.68 141.37 1275.59 141.556 1274.45 141.556ZM1291.12 141.556C1289.48 141.556 1287.97 141.157 1286.6 140.361C1285.23 139.565 1284.13 138.491 1283.32 137.139C1282.52 135.787 1282.13 134.296 1282.13 132.667C1282.13 131.019 1282.52 129.528 1283.32 128.194C1284.13 126.843 1285.23 125.769 1286.6 124.972C1287.97 124.176 1289.48 123.778 1291.12 123.778C1292.79 123.778 1294.3 124.176 1295.65 124.972C1297.02 125.769 1298.11 126.843 1298.9 128.194C1299.72 129.528 1300.13 131.019 1300.13 132.667C1300.13 134.296 1299.72 135.787 1298.9 137.139C1298.11 138.491 1297.02 139.565 1295.65 140.361C1294.3 141.157 1292.79 141.556 1291.12 141.556ZM1291.12 137.222C1291.96 137.222 1292.71 137.019 1293.38 136.611C1294.06 136.204 1294.6 135.657 1294.99 134.972C1295.39 134.269 1295.6 133.5 1295.6 132.667C1295.6 131.815 1295.39 131.046 1294.99 130.361C1294.6 129.676 1294.06 129.13 1293.38 128.722C1292.71 128.315 1291.96 128.111 1291.12 128.111C1290.29 128.111 1289.53 128.315 1288.85 128.722C1288.18 129.13 1287.64 129.676 1287.24 130.361C1286.85 131.046 1286.65 131.815 1286.65 132.667C1286.65 133.5 1286.85 134.269 1287.24 134.972C1287.64 135.657 1288.18 136.204 1288.85 136.611C1289.53 137.019 1290.29 137.222 1291.12 137.222ZM1309.4 141.556C1308.24 141.556 1307.13 141.278 1306.1 140.722C1305.06 140.148 1304.22 139.324 1303.57 138.25C1302.94 137.157 1302.63 135.843 1302.63 134.306V124.333H1307.46V133.667C1307.46 134.593 1307.74 135.417 1308.29 136.139C1308.87 136.861 1309.66 137.222 1310.68 137.222C1311.51 137.222 1312.25 136.926 1312.9 136.333C1313.57 135.722 1313.9 134.852 1313.9 133.722V124.333H1318.74V141H1314.35V139.25C1313.75 139.991 1313.02 140.565 1312.15 140.972C1311.3 141.361 1310.38 141.556 1309.4 141.556ZM1322.41 141V124.333H1326.74V126.167C1327.34 125.389 1328.07 124.796 1328.94 124.389C1329.81 123.981 1330.74 123.778 1331.74 123.778C1332.93 123.778 1334.03 124.065 1335.05 124.639C1336.09 125.194 1336.92 126.019 1337.55 127.111C1338.2 128.185 1338.52 129.491 1338.52 131.028V141H1333.69V131.667C1333.69 130.741 1333.41 129.917 1332.86 129.194C1332.3 128.472 1331.5 128.111 1330.47 128.111C1329.63 128.111 1328.88 128.398 1328.22 128.972C1327.57 129.528 1327.24 130.407 1327.24 131.611V141H1322.41ZM1343.26 141V128.167H1340.15V124.333H1343.35V118.778H1348.01V124.333H1351.32V128.167H1348.1V141H1343.26Z" fill="white"/>
<rect x="988.5" y="492.5" width="410" height="67" rx="8.5" fill="#3B6ABC" stroke="#3B6ABC" stroke-width="3"/>
<path d="M1129.83 534.3C1128.73 534.3 1127.71 534.1 1126.75 533.7C1125.79 533.289 1124.95 532.728 1124.22 532.017C1123.49 531.306 1122.93 530.478 1122.52 529.533C1122.11 528.589 1121.9 527.578 1121.9 526.5C1121.9 525.422 1122.11 524.411 1122.52 523.467C1122.93 522.522 1123.49 521.694 1124.22 520.983C1124.95 520.272 1125.79 519.717 1126.75 519.317C1127.71 518.906 1128.73 518.7 1129.83 518.7C1130.82 518.7 1131.76 518.861 1132.63 519.183C1133.51 519.506 1134.29 519.961 1134.98 520.55L1134.13 524.05C1133.72 523.361 1133.16 522.783 1132.43 522.317C1131.71 521.839 1130.88 521.6 1129.93 521.6C1129.03 521.6 1128.22 521.822 1127.48 522.267C1126.76 522.7 1126.19 523.289 1125.77 524.033C1125.34 524.767 1125.13 525.589 1125.13 526.5C1125.13 527.4 1125.34 528.222 1125.77 528.967C1126.19 529.711 1126.76 530.306 1127.48 530.75C1128.22 531.183 1129.03 531.4 1129.93 531.4C1130.87 531.4 1131.69 531.167 1132.42 530.7C1133.15 530.222 1133.72 529.639 1134.13 528.95L1134.98 532.45C1134.28 533.028 1133.49 533.483 1132.62 533.817C1131.75 534.139 1130.82 534.3 1129.83 534.3ZM1136.61 534V524H1139.21V525.717C1139.55 525.139 1139.99 524.694 1140.51 524.383C1141.04 524.061 1141.66 523.9 1142.37 523.9L1143.01 526.467C1142.8 526.4 1142.56 526.367 1142.29 526.367C1141.46 526.367 1140.79 526.639 1140.27 527.183C1139.76 527.717 1139.51 528.483 1139.51 529.483V534H1136.61ZM1149.13 534.333C1148 534.333 1147.02 534.1 1146.16 533.633C1145.3 533.167 1144.64 532.528 1144.16 531.717C1143.68 530.894 1143.44 529.956 1143.44 528.9C1143.44 527.889 1143.68 526.994 1144.14 526.217C1144.61 525.428 1145.24 524.806 1146.03 524.35C1146.83 523.894 1147.71 523.667 1148.68 523.667C1149.67 523.667 1150.55 523.894 1151.33 524.35C1152.1 524.794 1152.72 525.406 1153.16 526.183C1153.62 526.961 1153.84 527.844 1153.84 528.833V529.85H1147.74C1147.47 529.85 1147.2 529.833 1146.94 529.8C1146.69 529.767 1146.43 529.728 1146.18 529.683C1146.31 530.35 1146.64 530.894 1147.16 531.317C1147.69 531.728 1148.37 531.933 1149.19 531.933C1149.83 531.933 1150.39 531.806 1150.89 531.55C1151.4 531.294 1151.82 530.978 1152.14 530.6L1152.78 533.2C1152.28 533.578 1151.71 533.861 1151.08 534.05C1150.45 534.239 1149.8 534.333 1149.13 534.333ZM1146.11 527.933C1146.67 527.811 1147.21 527.75 1147.74 527.75H1149.51C1149.82 527.75 1150.12 527.761 1150.39 527.783C1150.67 527.806 1150.93 527.844 1151.18 527.9C1151.01 527.3 1150.7 526.828 1150.26 526.483C1149.83 526.139 1149.29 525.967 1148.64 525.967C1148.03 525.967 1147.5 526.144 1147.04 526.5C1146.6 526.844 1146.29 527.322 1146.11 527.933ZM1159.95 534.267C1159.03 534.267 1158.19 534.028 1157.43 533.55C1156.68 533.072 1156.07 532.439 1155.62 531.65C1155.17 530.85 1154.95 529.967 1154.95 529C1154.95 528.033 1155.17 527.15 1155.62 526.35C1156.07 525.55 1156.68 524.917 1157.43 524.45C1158.19 523.972 1159.03 523.733 1159.95 523.733C1160.6 523.733 1161.18 523.85 1161.72 524.083C1162.25 524.306 1162.71 524.617 1163.08 525.017V524H1165.58V534H1163.08V532.983C1162.71 533.383 1162.25 533.7 1161.72 533.933C1161.18 534.156 1160.6 534.267 1159.95 534.267ZM1160.3 531.717C1160.79 531.717 1161.23 531.594 1161.63 531.35C1162.03 531.106 1162.35 530.778 1162.58 530.367C1162.83 529.956 1162.95 529.5 1162.95 529C1162.95 528.5 1162.83 528.044 1162.58 527.633C1162.35 527.222 1162.03 526.894 1161.63 526.65C1161.23 526.406 1160.79 526.283 1160.3 526.283C1159.81 526.283 1159.37 526.406 1158.97 526.65C1158.57 526.894 1158.25 527.222 1158 527.633C1157.77 528.044 1157.65 528.5 1157.65 529C1157.65 529.5 1157.77 529.956 1158 530.367C1158.25 530.778 1158.57 531.106 1158.97 531.35C1159.37 531.594 1159.81 531.717 1160.3 531.717ZM1168.95 534V526.3H1167.08V524H1169V520.667H1171.8V524H1173.78V526.3H1171.85V534H1168.95ZM1179.97 534.333C1178.85 534.333 1177.86 534.1 1177 533.633C1176.15 533.167 1175.48 532.528 1175 531.717C1174.53 530.894 1174.29 529.956 1174.29 528.9C1174.29 527.889 1174.52 526.994 1174.99 526.217C1175.45 525.428 1176.08 524.806 1176.87 524.35C1177.67 523.894 1178.55 523.667 1179.52 523.667C1180.51 523.667 1181.39 523.894 1182.17 524.35C1182.95 524.794 1183.56 525.406 1184 526.183C1184.46 526.961 1184.69 527.844 1184.69 528.833V529.85H1178.59C1178.31 529.85 1178.04 529.833 1177.79 529.8C1177.53 529.767 1177.28 529.728 1177.02 529.683C1177.15 530.35 1177.48 530.894 1178 531.317C1178.54 531.728 1179.22 531.933 1180.04 531.933C1180.67 531.933 1181.24 531.806 1181.74 531.55C1182.25 531.294 1182.67 530.978 1182.99 530.6L1183.62 533.2C1183.12 533.578 1182.55 533.861 1181.92 534.05C1181.3 534.239 1180.65 534.333 1179.97 534.333ZM1176.95 527.933C1177.51 527.811 1178.05 527.75 1178.59 527.75H1180.35C1180.67 527.75 1180.96 527.761 1181.24 527.783C1181.52 527.806 1181.78 527.844 1182.02 527.9C1181.85 527.3 1181.55 526.828 1181.1 526.483C1180.67 526.139 1180.13 525.967 1179.49 525.967C1178.88 525.967 1178.34 526.144 1177.89 526.5C1177.44 526.844 1177.13 527.322 1176.95 527.933ZM1195.79 534.267C1194.87 534.267 1194.03 534.028 1193.27 533.55C1192.52 533.072 1191.91 532.439 1191.45 531.65C1191.01 530.85 1190.79 529.967 1190.79 529C1190.79 528.033 1191.01 527.15 1191.45 526.35C1191.91 525.55 1192.52 524.917 1193.27 524.45C1194.03 523.972 1194.87 523.733 1195.79 523.733C1196.43 523.733 1197.02 523.85 1197.55 524.083C1198.09 524.306 1198.54 524.617 1198.92 525.017V524H1201.42V534H1198.92V532.983C1198.54 533.383 1198.09 533.7 1197.55 533.933C1197.02 534.156 1196.43 534.267 1195.79 534.267ZM1196.14 531.717C1196.63 531.717 1197.07 531.594 1197.47 531.35C1197.87 531.106 1198.19 530.778 1198.42 530.367C1198.67 529.956 1198.79 529.5 1198.79 529C1198.79 528.5 1198.67 528.044 1198.42 527.633C1198.19 527.222 1197.87 526.894 1197.47 526.65C1197.07 526.406 1196.63 526.283 1196.14 526.283C1195.65 526.283 1195.2 526.406 1194.8 526.65C1194.4 526.894 1194.08 527.222 1193.84 527.633C1193.6 528.044 1193.49 528.5 1193.49 529C1193.49 529.5 1193.6 529.956 1193.84 530.367C1194.08 530.778 1194.4 531.106 1194.8 531.35C1195.2 531.594 1195.65 531.717 1196.14 531.717ZM1208.52 534.333C1207.53 534.333 1206.62 534.094 1205.8 533.617C1204.98 533.139 1204.32 532.494 1203.83 531.683C1203.35 530.872 1203.12 529.978 1203.12 529C1203.12 528.011 1203.35 527.117 1203.83 526.317C1204.32 525.506 1204.98 524.861 1205.8 524.383C1206.62 523.906 1207.53 523.667 1208.52 523.667C1209.2 523.667 1209.85 523.783 1210.47 524.017C1211.09 524.239 1211.64 524.572 1212.12 525.017L1211.37 527.967C1211.09 527.511 1210.72 527.117 1210.25 526.783C1209.79 526.439 1209.25 526.267 1208.63 526.267C1208.11 526.267 1207.64 526.389 1207.23 526.633C1206.82 526.878 1206.5 527.206 1206.27 527.617C1206.03 528.028 1205.92 528.489 1205.92 529C1205.92 529.5 1206.03 529.961 1206.27 530.383C1206.5 530.794 1206.82 531.122 1207.23 531.367C1207.64 531.611 1208.11 531.733 1208.63 531.733C1209.25 531.733 1209.79 531.567 1210.25 531.233C1210.72 530.889 1211.09 530.489 1211.37 530.033L1212.12 532.983C1211.64 533.428 1211.09 533.767 1210.47 534C1209.85 534.222 1209.2 534.333 1208.52 534.333ZM1218.52 534.333C1217.53 534.333 1216.63 534.094 1215.81 533.617C1214.98 533.139 1214.33 532.494 1213.84 531.683C1213.36 530.872 1213.12 529.978 1213.12 529C1213.12 528.011 1213.36 527.117 1213.84 526.317C1214.33 525.506 1214.98 524.861 1215.81 524.383C1216.63 523.906 1217.53 523.667 1218.52 523.667C1219.21 523.667 1219.86 523.783 1220.47 524.017C1221.1 524.239 1221.65 524.572 1222.12 525.017L1221.37 527.967C1221.1 527.511 1220.72 527.117 1220.26 526.783C1219.8 526.439 1219.26 526.267 1218.64 526.267C1218.12 526.267 1217.65 526.389 1217.24 526.633C1216.83 526.878 1216.51 527.206 1216.27 527.617C1216.04 528.028 1215.92 528.489 1215.92 529C1215.92 529.5 1216.04 529.961 1216.27 530.383C1216.51 530.794 1216.83 531.122 1217.24 531.367C1217.65 531.611 1218.12 531.733 1218.64 531.733C1219.26 531.733 1219.8 531.567 1220.26 531.233C1220.72 530.889 1221.1 530.489 1221.37 530.033L1222.12 532.983C1221.65 533.428 1221.1 533.767 1220.47 534C1219.86 534.222 1219.21 534.333 1218.52 534.333ZM1228.53 534.333C1227.54 534.333 1226.64 534.094 1225.81 533.617C1224.99 533.139 1224.34 532.494 1223.85 531.683C1223.37 530.872 1223.13 529.978 1223.13 529C1223.13 528.011 1223.37 527.117 1223.85 526.317C1224.34 525.506 1224.99 524.861 1225.81 524.383C1226.64 523.906 1227.54 523.667 1228.53 523.667C1229.53 523.667 1230.44 523.906 1231.25 524.383C1232.07 524.861 1232.72 525.506 1233.2 526.317C1233.69 527.117 1233.93 528.011 1233.93 529C1233.93 529.978 1233.69 530.872 1233.2 531.683C1232.72 532.494 1232.07 533.139 1231.25 533.617C1230.44 534.094 1229.53 534.333 1228.53 534.333ZM1228.53 531.733C1229.03 531.733 1229.48 531.611 1229.88 531.367C1230.29 531.122 1230.61 530.794 1230.85 530.383C1231.09 529.961 1231.21 529.5 1231.21 529C1231.21 528.489 1231.09 528.028 1230.85 527.617C1230.61 527.206 1230.29 526.878 1229.88 526.633C1229.48 526.389 1229.03 526.267 1228.53 526.267C1228.03 526.267 1227.58 526.389 1227.16 526.633C1226.76 526.878 1226.44 527.206 1226.2 527.617C1225.96 528.028 1225.85 528.489 1225.85 529C1225.85 529.5 1225.96 529.961 1226.2 530.383C1226.44 530.794 1226.76 531.122 1227.16 531.367C1227.58 531.611 1228.03 531.733 1228.53 531.733ZM1239.5 534.333C1238.8 534.333 1238.14 534.167 1237.51 533.833C1236.89 533.489 1236.39 532.994 1236 532.35C1235.62 531.694 1235.43 530.906 1235.43 529.983V524H1238.33V529.6C1238.33 530.156 1238.5 530.65 1238.83 531.083C1239.18 531.517 1239.65 531.733 1240.26 531.733C1240.76 531.733 1241.21 531.556 1241.6 531.2C1242 530.833 1242.2 530.311 1242.2 529.633V524H1245.1V534H1242.46V532.95C1242.11 533.394 1241.67 533.739 1241.15 533.983C1240.64 534.217 1240.09 534.333 1239.5 534.333ZM1247.3 534V524H1249.9V525.1C1250.26 524.633 1250.7 524.278 1251.22 524.033C1251.74 523.789 1252.3 523.667 1252.9 523.667C1253.61 523.667 1254.28 523.839 1254.89 524.183C1255.51 524.517 1256.01 525.011 1256.39 525.667C1256.78 526.311 1256.97 527.094 1256.97 528.017V534H1254.07V528.4C1254.07 527.844 1253.9 527.35 1253.57 526.917C1253.24 526.483 1252.76 526.267 1252.14 526.267C1251.64 526.267 1251.19 526.439 1250.79 526.783C1250.4 527.117 1250.2 527.644 1250.2 528.367V534H1247.3ZM1259.81 534V526.3H1257.95V524H1259.86V520.667H1262.66V524H1264.65V526.3H1262.71V534H1259.81Z" fill="white"/>
<path d="M1101.6 243V228H1109.6V230.5H1104.5V232.9H1109.1V235.4H1104.5V243H1101.6ZM1114.65 243.333C1113.95 243.333 1113.29 243.167 1112.66 242.833C1112.04 242.489 1111.54 241.994 1111.15 241.35C1110.77 240.694 1110.58 239.906 1110.58 238.983V233H1113.48V238.6C1113.48 239.156 1113.65 239.65 1113.98 240.083C1114.32 240.517 1114.8 240.733 1115.41 240.733C1115.91 240.733 1116.36 240.556 1116.75 240.2C1117.15 239.833 1117.35 239.311 1117.35 238.633V233H1120.25V243H1117.61V241.95C1117.26 242.394 1116.82 242.739 1116.3 242.983C1115.79 243.217 1115.24 243.333 1114.65 243.333ZM1122.48 243V227H1125.38V243H1122.48ZM1127.64 243V227H1130.54V243H1127.64ZM1150.06 243.5L1141.06 234.517V243H1138.26V227.5L1147.26 236.467V228H1150.06V243.5ZM1157.26 243.267C1156.33 243.267 1155.5 243.028 1154.74 242.55C1153.98 242.072 1153.38 241.439 1152.92 240.65C1152.48 239.85 1152.26 238.967 1152.26 238C1152.26 237.033 1152.48 236.15 1152.92 235.35C1153.38 234.55 1153.98 233.917 1154.74 233.45C1155.5 232.972 1156.33 232.733 1157.26 232.733C1157.9 232.733 1158.49 232.85 1159.02 233.083C1159.56 233.306 1160.01 233.617 1160.39 234.017V233H1162.89V243H1160.39V241.983C1160.01 242.383 1159.56 242.7 1159.02 242.933C1158.49 243.156 1157.9 243.267 1157.26 243.267ZM1157.61 240.717C1158.1 240.717 1158.54 240.594 1158.94 240.35C1159.34 240.106 1159.66 239.778 1159.89 239.367C1160.13 238.956 1160.26 238.5 1160.26 238C1160.26 237.5 1160.13 237.044 1159.89 236.633C1159.66 236.222 1159.34 235.894 1158.94 235.65C1158.54 235.406 1158.1 235.283 1157.61 235.283C1157.12 235.283 1156.67 235.406 1156.27 235.65C1155.87 235.894 1155.55 236.222 1155.31 236.633C1155.07 237.044 1154.96 237.5 1154.96 238C1154.96 238.5 1155.07 238.956 1155.31 239.367C1155.55 239.778 1155.87 240.106 1156.27 240.35C1156.67 240.594 1157.12 240.717 1157.61 240.717ZM1165.08 243V233H1167.68V234.1C1168.04 233.633 1168.48 233.278 1169 233.033C1169.53 232.789 1170.09 232.667 1170.67 232.667C1171.26 232.667 1171.81 232.789 1172.33 233.033C1172.86 233.278 1173.3 233.633 1173.65 234.1C1174.04 233.633 1174.52 233.278 1175.1 233.033C1175.68 232.789 1176.31 232.667 1176.98 232.667C1177.7 232.667 1178.36 232.833 1178.98 233.167C1179.61 233.489 1180.11 233.967 1180.5 234.6C1180.89 235.222 1181.08 235.983 1181.08 236.883V243H1178.18V237.3C1178.18 236.767 1178.03 236.294 1177.72 235.883C1177.41 235.472 1176.96 235.267 1176.37 235.267C1176.06 235.267 1175.76 235.344 1175.47 235.5C1175.19 235.644 1174.96 235.867 1174.78 236.167C1174.62 236.456 1174.53 236.822 1174.53 237.267V243H1171.63V237.3C1171.63 236.944 1171.56 236.611 1171.42 236.3C1171.28 235.989 1171.08 235.739 1170.8 235.55C1170.53 235.361 1170.21 235.267 1169.82 235.267C1169.51 235.267 1169.21 235.344 1168.92 235.5C1168.64 235.644 1168.41 235.867 1168.23 236.167C1168.07 236.456 1167.98 236.822 1167.98 237.267V243H1165.08ZM1188.27 243.333C1187.15 243.333 1186.16 243.1 1185.3 242.633C1184.45 242.167 1183.78 241.528 1183.3 240.717C1182.82 239.894 1182.58 238.956 1182.58 237.9C1182.58 236.889 1182.82 235.994 1183.28 235.217C1183.75 234.428 1184.38 233.806 1185.17 233.35C1185.97 232.894 1186.85 232.667 1187.82 232.667C1188.81 232.667 1189.69 232.894 1190.47 233.35C1191.25 233.794 1191.86 234.406 1192.3 235.183C1192.76 235.961 1192.98 236.844 1192.98 237.833V238.85H1186.88C1186.61 238.85 1186.34 238.833 1186.08 238.8C1185.83 238.767 1185.57 238.728 1185.32 238.683C1185.45 239.35 1185.78 239.894 1186.3 240.317C1186.83 240.728 1187.51 240.933 1188.33 240.933C1188.97 240.933 1189.53 240.806 1190.03 240.55C1190.55 240.294 1190.96 239.978 1191.28 239.6L1191.92 242.2C1191.42 242.578 1190.85 242.861 1190.22 243.05C1189.6 243.239 1188.95 243.333 1188.27 243.333ZM1185.25 236.933C1185.81 236.811 1186.35 236.75 1186.88 236.75H1188.65C1188.96 236.75 1189.26 236.761 1189.53 236.783C1189.81 236.806 1190.07 236.844 1190.32 236.9C1190.15 236.3 1189.85 235.828 1189.4 235.483C1188.97 235.139 1188.43 234.967 1187.78 234.967C1187.17 234.967 1186.64 235.144 1186.18 235.5C1185.74 235.844 1185.43 236.322 1185.25 236.933Z" fill="#BFBFBF"/>
<rect x="987.5" y="200.5" width="410" height="67" rx="8.5" stroke="#BFBFBF" stroke-width="3"/>
<path fill-rule="evenodd" clip-rule="evenodd" d="M1044.94 250.887L1044.92 250.89L1044.81 250.942L1044.78 250.948L1044.76 250.942L1044.64 250.889C1044.63 250.885 1044.61 250.887 1044.6 250.897L1044.6 250.912L1044.57 251.554L1044.58 251.584L1044.6 251.604L1044.76 251.715L1044.78 251.721L1044.8 251.715L1044.97 251.604L1044.99 251.58L1044.99 251.554L1044.97 250.914C1044.96 250.898 1044.95 250.889 1044.94 250.887ZM1045.36 250.718L1045.34 250.72L1045.04 250.86L1045.03 250.875L1045.02 250.891L1045.05 251.536L1045.06 251.554L1045.07 251.567L1045.39 251.704C1045.41 251.709 1045.43 251.705 1045.44 251.692L1045.44 251.671L1045.39 250.75C1045.38 250.731 1045.37 250.721 1045.36 250.718ZM1044.23 250.72C1044.22 250.716 1044.21 250.715 1044.2 250.717C1044.2 250.719 1044.19 250.723 1044.18 250.729L1044.17 250.75L1044.12 251.671C1044.12 251.689 1044.13 251.701 1044.15 251.707L1044.17 251.704L1044.49 251.565L1044.51 251.553L1044.51 251.536L1044.54 250.891L1044.53 250.874L1044.52 250.859L1044.23 250.72Z" fill="#F0EFEF"/>
<path fill-rule="evenodd" clip-rule="evenodd" d="M1044 219C1035.26 219 1028.17 225.716 1028.17 234C1028.17 242.285 1035.26 249 1044 249C1052.74 249 1059.83 242.285 1059.83 234C1059.83 225.716 1052.74 219 1044 219ZM1038.46 230.25C1038.46 229.561 1038.6 228.878 1038.88 228.241C1039.16 227.604 1039.57 227.025 1040.08 226.538C1040.6 226.05 1041.21 225.663 1041.88 225.4C1042.55 225.136 1043.27 225 1044 225C1044.73 225 1045.45 225.136 1046.12 225.4C1046.79 225.663 1047.4 226.05 1047.92 226.538C1048.43 227.025 1048.84 227.604 1049.12 228.241C1049.4 228.878 1049.54 229.561 1049.54 230.25C1049.54 231.642 1048.96 232.978 1047.92 233.962C1046.88 234.947 1045.47 235.5 1044 235.5C1042.53 235.5 1041.12 234.947 1040.08 233.962C1039.04 232.978 1038.46 231.642 1038.46 230.25ZM1053.91 241.476C1052.72 242.888 1051.22 244.028 1049.5 244.812C1047.78 245.595 1045.9 246.001 1044 246C1042.1 246.001 1040.22 245.595 1038.5 244.812C1036.78 244.028 1035.28 242.888 1034.09 241.476C1036.66 239.731 1040.16 238.5 1044 238.5C1047.84 238.5 1051.34 239.731 1053.91 241.476Z" fill="#F0EFEF"/>
<path d="M1101.6 332V317H1109.6V319.6H1104.5V321.9H1108.43V324.4H1104.5V329.3H1109.6V332H1101.6ZM1111.6 332V322H1114.2V323.1C1114.56 322.633 1114.99 322.278 1115.52 322.033C1116.05 321.789 1116.61 321.667 1117.18 321.667C1117.77 321.667 1118.33 321.789 1118.85 322.033C1119.37 322.278 1119.81 322.633 1120.17 323.1C1120.56 322.633 1121.04 322.278 1121.62 322.033C1122.19 321.789 1122.82 321.667 1123.5 321.667C1124.21 321.667 1124.88 321.833 1125.5 322.167C1126.12 322.489 1126.63 322.967 1127.02 323.6C1127.41 324.222 1127.6 324.983 1127.6 325.883V332H1124.7V326.3C1124.7 325.767 1124.54 325.294 1124.23 324.883C1123.92 324.472 1123.47 324.267 1122.88 324.267C1122.57 324.267 1122.27 324.344 1121.98 324.5C1121.71 324.644 1121.48 324.867 1121.3 325.167C1121.13 325.456 1121.05 325.822 1121.05 326.267V332H1118.15V326.3C1118.15 325.944 1118.08 325.611 1117.93 325.3C1117.8 324.989 1117.59 324.739 1117.32 324.55C1117.05 324.361 1116.72 324.267 1116.33 324.267C1116.02 324.267 1115.72 324.344 1115.43 324.5C1115.16 324.644 1114.93 324.867 1114.75 325.167C1114.58 325.456 1114.5 325.822 1114.5 326.267V332H1111.6ZM1134.1 332.267C1133.18 332.267 1132.34 332.028 1131.58 331.55C1130.83 331.072 1130.22 330.439 1129.77 329.65C1129.32 328.85 1129.1 327.967 1129.1 327C1129.1 326.033 1129.32 325.15 1129.77 324.35C1130.22 323.55 1130.83 322.917 1131.58 322.45C1132.34 321.972 1133.18 321.733 1134.1 321.733C1134.74 321.733 1135.33 321.85 1135.87 322.083C1136.4 322.306 1136.86 322.617 1137.23 323.017V322H1139.73V332H1137.23V330.983C1136.86 331.383 1136.4 331.7 1135.87 331.933C1135.33 332.156 1134.74 332.267 1134.1 332.267ZM1134.45 329.717C1134.94 329.717 1135.38 329.594 1135.78 329.35C1136.18 329.106 1136.5 328.778 1136.73 328.367C1136.98 327.956 1137.1 327.5 1137.1 327C1137.1 326.5 1136.98 326.044 1136.73 325.633C1136.5 325.222 1136.18 324.894 1135.78 324.65C1135.38 324.406 1134.94 324.283 1134.45 324.283C1133.96 324.283 1133.52 324.406 1133.12 324.65C1132.72 324.894 1132.39 325.222 1132.15 325.633C1131.92 326.044 1131.8 326.5 1131.8 327C1131.8 327.5 1131.92 327.956 1132.15 328.367C1132.39 328.778 1132.72 329.106 1133.12 329.35C1133.52 329.594 1133.96 329.717 1134.45 329.717ZM1141.96 332V322H1144.86V332H1141.96ZM1143.41 320.55C1142.98 320.55 1142.61 320.4 1142.31 320.1C1142.01 319.8 1141.86 319.433 1141.86 319C1141.86 318.556 1142.01 318.189 1142.31 317.9C1142.61 317.6 1142.98 317.45 1143.41 317.45C1143.86 317.45 1144.22 317.6 1144.51 317.9C1144.81 318.189 1144.96 318.556 1144.96 319C1144.96 319.433 1144.81 319.8 1144.51 320.1C1144.22 320.4 1143.86 320.55 1143.41 320.55ZM1147.12 332V316H1150.02V332H1147.12Z" fill="#BFBFBF"/>
<rect x="987.5" y="289.5" width="410" height="67" rx="8.5" stroke="#BFBFBF" stroke-width="3"/>
<g clip-path="url(#clip1_2_2)">
<path d="M1056.74 315C1056.62 314.988 1056.49 314.988 1056.37 315H1031.48C1031.32 315.002 1031.17 315.025 1031.01 315.067L1043.86 327.058L1056.74 315Z" fill="#F8F8F8"/>
<path d="M1058.05 316.158L1045.11 328.242C1044.78 328.552 1044.33 328.726 1043.86 328.726C1043.39 328.726 1042.94 328.552 1042.6 328.242L1029.78 316.25C1029.74 316.386 1029.72 316.526 1029.72 316.667V333.333C1029.72 333.775 1029.9 334.199 1030.24 334.512C1030.57 334.824 1031.02 335 1031.49 335H1056.38C1056.85 335 1057.31 334.824 1057.64 334.512C1057.97 334.199 1058.16 333.775 1058.16 333.333V316.667C1058.15 316.493 1058.12 316.322 1058.05 316.158ZM1032.71 333.333H1031.48V332.142L1037.94 326.133L1039.19 327.308L1032.71 333.333ZM1056.36 333.333H1055.12L1048.64 327.308L1049.89 326.133L1056.36 332.142L1056.36 333.333Z" fill="#F8F8F8"/>
</g>
<path d="M1101.6 421V406H1106.13C1107.18 406 1108.06 406.156 1108.78 406.467C1109.52 406.778 1110.11 407.189 1110.55 407.7C1110.99 408.2 1111.32 408.75 1111.52 409.35C1111.73 409.939 1111.83 410.522 1111.83 411.1C1111.83 411.667 1111.73 412.25 1111.53 412.85C1111.33 413.439 1111.01 413.989 1110.55 414.5C1110.11 415 1109.52 415.406 1108.8 415.717C1108.08 416.028 1107.19 416.183 1106.13 416.183H1104.5V421H1101.6ZM1104.5 413.583H1105.97C1106.68 413.583 1107.24 413.461 1107.65 413.217C1108.07 412.961 1108.37 412.644 1108.55 412.267C1108.74 411.889 1108.83 411.5 1108.83 411.1C1108.83 410.711 1108.74 410.328 1108.57 409.95C1108.39 409.561 1108.09 409.239 1107.67 408.983C1107.26 408.728 1106.69 408.6 1105.97 408.6H1104.5V413.583ZM1117.27 421.267C1116.35 421.267 1115.51 421.028 1114.76 420.55C1114 420.072 1113.39 419.439 1112.94 418.65C1112.49 417.85 1112.27 416.967 1112.27 416C1112.27 415.033 1112.49 414.15 1112.94 413.35C1113.39 412.55 1114 411.917 1114.76 411.45C1115.51 410.972 1116.35 410.733 1117.27 410.733C1117.92 410.733 1118.51 410.85 1119.04 411.083C1119.57 411.306 1120.03 411.617 1120.41 412.017V411H1122.91V421H1120.41V419.983C1120.03 420.383 1119.57 420.7 1119.04 420.933C1118.51 421.156 1117.92 421.267 1117.27 421.267ZM1117.62 418.717C1118.11 418.717 1118.56 418.594 1118.96 418.35C1119.36 418.106 1119.67 417.778 1119.91 417.367C1120.15 416.956 1120.27 416.5 1120.27 416C1120.27 415.5 1120.15 415.044 1119.91 414.633C1119.67 414.222 1119.36 413.894 1118.96 413.65C1118.56 413.406 1118.11 413.283 1117.62 413.283C1117.13 413.283 1116.69 413.406 1116.29 413.65C1115.89 413.894 1115.57 414.222 1115.32 414.633C1115.09 415.044 1114.97 415.5 1114.97 416C1114.97 416.5 1115.09 416.956 1115.32 417.367C1115.57 417.778 1115.89 418.106 1116.29 418.35C1116.69 418.594 1117.13 418.717 1117.62 418.717ZM1128.38 421.333C1127.71 421.333 1127.02 421.222 1126.32 421C1125.63 420.778 1125.09 420.478 1124.7 420.1L1125.42 417.367C1125.74 417.811 1126.18 418.2 1126.75 418.533C1127.33 418.867 1127.92 419.033 1128.53 419.033C1128.94 419.033 1129.24 418.956 1129.42 418.8C1129.61 418.644 1129.7 418.456 1129.7 418.233C1129.7 417.978 1129.61 417.794 1129.42 417.683C1129.23 417.561 1129.03 417.461 1128.83 417.383L1127.43 416.85C1127.12 416.728 1126.77 416.561 1126.37 416.35C1125.97 416.139 1125.62 415.839 1125.32 415.45C1125.03 415.061 1124.88 414.55 1124.88 413.917C1124.88 413.339 1125.03 412.806 1125.32 412.317C1125.61 411.828 1126.02 411.433 1126.57 411.133C1127.12 410.822 1127.79 410.667 1128.57 410.667C1129.29 410.667 1129.96 410.789 1130.58 411.033C1131.22 411.278 1131.68 411.55 1131.97 411.85L1131.3 414.483C1130.92 413.994 1130.47 413.622 1129.95 413.367C1129.44 413.1 1128.95 412.967 1128.48 412.967C1128.13 412.967 1127.87 413.039 1127.7 413.183C1127.53 413.328 1127.45 413.494 1127.45 413.683C1127.45 413.828 1127.51 413.972 1127.62 414.117C1127.74 414.25 1127.94 414.372 1128.22 414.483L1129.52 414.967C1129.89 415.1 1130.29 415.278 1130.72 415.5C1131.15 415.722 1131.52 416.033 1131.82 416.433C1132.12 416.822 1132.27 417.361 1132.27 418.05C1132.27 419.017 1131.91 419.806 1131.18 420.417C1130.47 421.028 1129.54 421.333 1128.38 421.333ZM1137.22 421.333C1136.54 421.333 1135.85 421.222 1135.15 421C1134.46 420.778 1133.92 420.478 1133.54 420.1L1134.25 417.367C1134.57 417.811 1135.02 418.2 1135.59 418.533C1136.16 418.867 1136.76 419.033 1137.37 419.033C1137.78 419.033 1138.07 418.956 1138.25 418.8C1138.44 418.644 1138.54 418.456 1138.54 418.233C1138.54 417.978 1138.44 417.794 1138.25 417.683C1138.06 417.561 1137.87 417.461 1137.67 417.383L1136.27 416.85C1135.96 416.728 1135.6 416.561 1135.2 416.35C1134.8 416.139 1134.45 415.839 1134.15 415.45C1133.86 415.061 1133.72 414.55 1133.72 413.917C1133.72 413.339 1133.86 412.806 1134.15 412.317C1134.44 411.828 1134.86 411.433 1135.4 411.133C1135.96 410.822 1136.62 410.667 1137.4 410.667C1138.12 410.667 1138.8 410.789 1139.42 411.033C1140.05 411.278 1140.51 411.55 1140.8 411.85L1140.14 414.483C1139.76 413.994 1139.31 413.622 1138.79 413.367C1138.27 413.1 1137.79 412.967 1137.32 412.967C1136.96 412.967 1136.7 413.039 1136.54 413.183C1136.37 413.328 1136.29 413.494 1136.29 413.683C1136.29 413.828 1136.34 413.972 1136.45 414.117C1136.57 414.25 1136.77 414.372 1137.05 414.483L1138.35 414.967C1138.73 415.1 1139.13 415.278 1139.55 415.5C1139.99 415.722 1140.35 416.033 1140.65 416.433C1140.95 416.822 1141.1 417.361 1141.1 418.05C1141.1 419.017 1140.74 419.806 1140.02 420.417C1139.31 421.028 1138.37 421.333 1137.22 421.333ZM1146.76 421.5L1141.77 411H1144.89L1146.42 414.217C1146.57 414.494 1146.71 414.8 1146.86 415.133C1147 415.456 1147.14 415.822 1147.29 416.233C1147.44 415.844 1147.59 415.506 1147.74 415.217C1147.89 414.917 1148.04 414.628 1148.19 414.35L1150.07 410.667L1152.02 414.35C1152.16 414.594 1152.29 414.867 1152.44 415.167C1152.59 415.467 1152.74 415.822 1152.89 416.233C1153.03 415.789 1153.17 415.411 1153.31 415.1C1153.45 414.789 1153.59 414.494 1153.72 414.217L1155.26 411H1158.24L1153.26 421.5L1150.97 417.65C1150.79 417.361 1150.63 417.067 1150.47 416.767C1150.32 416.467 1150.16 416.15 1150.01 415.817C1149.86 416.15 1149.71 416.467 1149.54 416.767C1149.38 417.067 1149.22 417.361 1149.04 417.65L1146.76 421.5ZM1163.84 421.333C1162.85 421.333 1161.95 421.094 1161.13 420.617C1160.3 420.139 1159.65 419.494 1159.16 418.683C1158.68 417.872 1158.44 416.978 1158.44 416C1158.44 415.011 1158.68 414.117 1159.16 413.317C1159.65 412.506 1160.3 411.861 1161.13 411.383C1161.95 410.906 1162.85 410.667 1163.84 410.667C1164.84 410.667 1165.75 410.906 1166.56 411.383C1167.38 411.861 1168.03 412.506 1168.51 413.317C1169 414.117 1169.24 415.011 1169.24 416C1169.24 416.978 1169 417.872 1168.51 418.683C1168.03 419.494 1167.38 420.139 1166.56 420.617C1165.75 421.094 1164.84 421.333 1163.84 421.333ZM1163.84 418.733C1164.34 418.733 1164.79 418.611 1165.19 418.367C1165.6 418.122 1165.93 417.794 1166.16 417.383C1166.4 416.961 1166.53 416.5 1166.53 416C1166.53 415.489 1166.4 415.028 1166.16 414.617C1165.93 414.206 1165.6 413.878 1165.19 413.633C1164.79 413.389 1164.34 413.267 1163.84 413.267C1163.34 413.267 1162.89 413.389 1162.48 413.633C1162.08 413.878 1161.75 414.206 1161.51 414.617C1161.28 415.028 1161.16 415.489 1161.16 416C1161.16 416.5 1161.28 416.961 1161.51 417.383C1161.75 417.794 1162.08 418.122 1162.48 418.367C1162.89 418.611 1163.34 418.733 1163.84 418.733ZM1170.94 421V411H1173.54V412.717C1173.89 412.139 1174.32 411.694 1174.84 411.383C1175.38 411.061 1176 410.9 1176.71 410.9L1177.34 413.467C1177.13 413.4 1176.89 413.367 1176.63 413.367C1175.79 413.367 1175.12 413.639 1174.61 414.183C1174.1 414.717 1173.84 415.483 1173.84 416.483V421H1170.94ZM1182.8 421.267C1181.86 421.267 1181.02 421.028 1180.26 420.55C1179.51 420.072 1178.9 419.439 1178.45 418.65C1178 417.85 1177.78 416.967 1177.78 416C1177.78 415.033 1178 414.15 1178.45 413.35C1178.9 412.55 1179.51 411.917 1180.26 411.45C1181.02 410.972 1181.86 410.733 1182.8 410.733C1183.33 410.733 1183.82 410.811 1184.28 410.967C1184.74 411.122 1185.15 411.344 1185.51 411.633V405H1188.41V421H1185.91V420.017C1185.54 420.406 1185.08 420.711 1184.55 420.933C1184.01 421.156 1183.43 421.267 1182.8 421.267ZM1183.13 418.717C1183.62 418.717 1184.06 418.594 1184.46 418.35C1184.86 418.106 1185.18 417.778 1185.41 417.367C1185.66 416.956 1185.78 416.5 1185.78 416C1185.78 415.5 1185.66 415.044 1185.41 414.633C1185.18 414.222 1184.86 413.894 1184.46 413.65C1184.06 413.406 1183.62 413.283 1183.13 413.283C1182.64 413.283 1182.2 413.406 1181.8 413.65C1181.4 413.894 1181.07 414.222 1180.83 414.633C1180.6 415.044 1180.48 415.5 1180.48 416C1180.48 416.5 1180.6 416.956 1180.83 417.367C1181.07 417.778 1181.4 418.106 1181.8 418.35C1182.2 418.594 1182.64 418.717 1183.13 418.717Z" fill="#BFBFBF"/>
<path d="M1325.54 421.278C1324.78 421.278 1324.06 421.139 1323.38 420.861C1322.7 420.574 1322.16 420.231 1321.75 419.833L1322.43 417.056C1322.75 417.62 1323.21 418.093 1323.81 418.472C1324.4 418.843 1325 419.028 1325.63 419.028C1326.13 419.028 1326.53 418.889 1326.82 418.611C1327.12 418.333 1327.26 417.995 1327.26 417.597C1327.26 417.273 1327.19 417.005 1327.03 416.792C1326.88 416.579 1326.7 416.403 1326.49 416.264C1326.28 416.125 1326.1 416.019 1325.94 415.944L1324.47 415.208C1324.05 414.995 1323.64 414.745 1323.25 414.458C1322.86 414.162 1322.54 413.796 1322.29 413.361C1322.05 412.926 1321.93 412.389 1321.93 411.75C1321.93 411.046 1322.09 410.431 1322.4 409.903C1322.73 409.375 1323.18 408.963 1323.76 408.667C1324.35 408.37 1325.03 408.222 1325.82 408.222C1326.56 408.222 1327.22 408.343 1327.79 408.583C1328.38 408.815 1328.85 409.065 1329.21 409.333L1328.57 412.042C1328.2 411.56 1327.75 411.176 1327.24 410.889C1326.73 410.593 1326.22 410.444 1325.71 410.444C1325.25 410.444 1324.9 410.56 1324.65 410.792C1324.41 411.023 1324.29 411.31 1324.29 411.653C1324.29 411.866 1324.34 412.056 1324.43 412.222C1324.53 412.389 1324.68 412.537 1324.86 412.667C1325.05 412.796 1325.26 412.926 1325.51 413.056L1327 413.792C1327.25 413.912 1327.52 414.069 1327.82 414.264C1328.12 414.449 1328.4 414.685 1328.68 414.972C1328.96 415.259 1329.19 415.606 1329.36 416.014C1329.54 416.412 1329.63 416.889 1329.63 417.444C1329.63 418.167 1329.46 418.819 1329.12 419.403C1328.79 419.977 1328.32 420.435 1327.71 420.778C1327.11 421.111 1326.38 421.278 1325.54 421.278ZM1331.08 421V407.667H1333.49V413.292C1333.79 412.995 1334.13 412.773 1334.51 412.625C1334.9 412.468 1335.31 412.389 1335.74 412.389C1336.34 412.389 1336.89 412.532 1337.4 412.819C1337.91 413.097 1338.33 413.509 1338.65 414.056C1338.97 414.593 1339.13 415.245 1339.13 416.014V421H1336.72V416.333C1336.72 415.87 1336.58 415.458 1336.3 415.097C1336.02 414.736 1335.62 414.556 1335.1 414.556C1334.69 414.556 1334.31 414.699 1333.98 414.986C1333.66 415.264 1333.49 415.704 1333.49 416.306V421H1331.08ZM1344.89 421.278C1344.06 421.278 1343.31 421.079 1342.62 420.681C1341.94 420.282 1341.39 419.745 1340.98 419.069C1340.59 418.394 1340.39 417.648 1340.39 416.833C1340.39 416.009 1340.59 415.264 1340.98 414.597C1341.39 413.921 1341.94 413.384 1342.62 412.986C1343.31 412.588 1344.06 412.389 1344.89 412.389C1345.72 412.389 1346.47 412.588 1347.15 412.986C1347.84 413.384 1348.38 413.921 1348.78 414.597C1349.18 415.264 1349.39 416.009 1349.39 416.833C1349.39 417.648 1349.18 418.394 1348.78 419.069C1348.38 419.745 1347.84 420.282 1347.15 420.681C1346.47 421.079 1345.72 421.278 1344.89 421.278ZM1344.89 419.111C1345.3 419.111 1345.68 419.009 1346.01 418.806C1346.35 418.602 1346.62 418.329 1346.82 417.986C1347.02 417.634 1347.12 417.25 1347.12 416.833C1347.12 416.407 1347.02 416.023 1346.82 415.681C1346.62 415.338 1346.35 415.065 1346.01 414.861C1345.68 414.657 1345.3 414.556 1344.89 414.556C1344.47 414.556 1344.09 414.657 1343.75 414.861C1343.41 415.065 1343.15 415.338 1342.94 415.681C1342.75 416.023 1342.65 416.407 1342.65 416.833C1342.65 417.25 1342.75 417.634 1342.94 417.986C1343.15 418.329 1343.41 418.602 1343.75 418.806C1344.09 419.009 1344.47 419.111 1344.89 419.111ZM1353.85 421.417L1349.7 412.667H1352.29L1353.57 415.347C1353.69 415.579 1353.81 415.833 1353.93 416.111C1354.05 416.38 1354.17 416.685 1354.29 417.028C1354.42 416.704 1354.55 416.421 1354.67 416.181C1354.8 415.931 1354.92 415.69 1355.04 415.458L1356.61 412.389L1358.24 415.458C1358.35 415.662 1358.47 415.889 1358.59 416.139C1358.72 416.389 1358.84 416.685 1358.96 417.028C1359.08 416.657 1359.2 416.343 1359.31 416.083C1359.43 415.824 1359.54 415.579 1359.65 415.347L1360.93 412.667H1363.42L1359.27 421.417L1357.36 418.208C1357.22 417.968 1357.08 417.722 1356.95 417.472C1356.82 417.222 1356.69 416.958 1356.56 416.681C1356.44 416.958 1356.31 417.222 1356.17 417.472C1356.04 417.722 1355.9 417.968 1355.75 418.208L1353.85 421.417Z" fill="#BFBFBF"/>
<rect x="987.5" y="378.5" width="410" height="67" rx="8.5" stroke="#BFBFBF" stroke-width="3"/>
<path d="M1044 418.25C1044.71 418.25 1045.39 417.987 1045.89 417.518C1046.39 417.049 1046.67 416.413 1046.67 415.75C1046.67 415.087 1046.39 414.451 1045.89 413.982C1045.39 413.513 1044.71 413.25 1044 413.25C1043.29 413.25 1042.61 413.513 1042.11 413.982C1041.61 414.451 1041.33 415.087 1041.33 415.75C1041.33 416.413 1041.61 417.049 1042.11 417.518C1042.61 417.987 1043.29 418.25 1044 418.25ZM1052 407C1052.71 407 1053.39 407.263 1053.89 407.732C1054.39 408.201 1054.67 408.837 1054.67 409.5V422C1054.67 422.663 1054.39 423.299 1053.89 423.768C1053.39 424.237 1052.71 424.5 1052 424.5H1036C1035.29 424.5 1034.61 424.237 1034.11 423.768C1033.61 423.299 1033.33 422.663 1033.33 422V409.5C1033.33 408.837 1033.61 408.201 1034.11 407.732C1034.61 407.263 1035.29 407 1036 407H1037.33V404.5C1037.33 402.842 1038.04 401.253 1039.29 400.081C1040.54 398.908 1042.23 398.25 1044 398.25C1044.88 398.25 1045.74 398.412 1046.55 398.726C1047.36 399.04 1048.09 399.5 1048.71 400.081C1049.33 400.661 1049.82 401.35 1050.16 402.108C1050.49 402.867 1050.67 403.679 1050.67 404.5V407H1052ZM1044 400.75C1042.94 400.75 1041.92 401.145 1041.17 401.848C1040.42 402.552 1040 403.505 1040 404.5V407H1048V404.5C1048 403.505 1047.58 402.552 1046.83 401.848C1046.08 401.145 1045.06 400.75 1044 400.75Z" fill="#F8F8F8"/>
<path d="M90.4 93V70.5H95.05V88.95H101.8V93H90.4ZM111.273 93.5C109.79 93.5 108.432 93.1417 107.198 92.425C105.965 91.7083 104.982 90.7417 104.248 89.525C103.532 88.3083 103.173 86.9667 103.173 85.5C103.173 84.0167 103.532 82.675 104.248 81.475C104.982 80.2583 105.965 79.2917 107.198 78.575C108.432 77.8583 109.79 77.5 111.273 77.5C112.773 77.5 114.132 77.8583 115.348 78.575C116.582 79.2917 117.557 80.2583 118.273 81.475C119.007 82.675 119.373 84.0167 119.373 85.5C119.373 86.9667 119.007 88.3083 118.273 89.525C117.557 90.7417 116.582 91.7083 115.348 92.425C114.132 93.1417 112.773 93.5 111.273 93.5ZM111.273 89.6C112.023 89.6 112.698 89.4167 113.298 89.05C113.915 88.6833 114.398 88.1917 114.748 87.575C115.115 86.9417 115.298 86.25 115.298 85.5C115.298 84.7333 115.115 84.0417 114.748 83.425C114.398 82.8083 113.915 82.3167 113.298 81.95C112.698 81.5833 112.023 81.4 111.273 81.4C110.523 81.4 109.84 81.5833 109.223 81.95C108.623 82.3167 108.14 82.8083 107.773 83.425C107.423 84.0417 107.248 84.7333 107.248 85.5C107.248 86.25 107.423 86.9417 107.773 87.575C108.14 88.1917 108.623 88.6833 109.223 89.05C109.84 89.4167 110.523 89.6 111.273 89.6ZM128.473 101C127.307 101 126.19 100.825 125.123 100.475C124.073 100.142 123.165 99.6833 122.398 99.1L123.448 94.8C123.982 95.5167 124.682 96.1 125.548 96.55C126.415 97.0167 127.39 97.25 128.473 97.25C130.007 97.25 131.198 96.8083 132.048 95.925C132.898 95.0583 133.323 93.9417 133.323 92.575V91.525C132.757 92.1083 132.073 92.5667 131.273 92.9C130.49 93.2333 129.623 93.4 128.673 93.4C127.29 93.4 126.032 93.0417 124.898 92.325C123.765 91.6083 122.857 90.6583 122.173 89.475C121.507 88.275 121.173 86.95 121.173 85.5C121.173 84.05 121.507 82.725 122.173 81.525C122.857 80.325 123.765 79.375 124.898 78.675C126.032 77.9583 127.29 77.6 128.673 77.6C129.64 77.6 130.523 77.775 131.323 78.125C132.123 78.4583 132.807 78.925 133.373 79.525V78H137.123V93.2C137.123 94.8333 136.723 96.2333 135.923 97.4C135.123 98.5667 134.065 99.4583 132.748 100.075C131.432 100.692 130.007 101 128.473 101ZM129.198 89.575C129.932 89.575 130.598 89.3917 131.198 89.025C131.798 88.6583 132.273 88.1667 132.623 87.55C132.99 86.9333 133.173 86.25 133.173 85.5C133.173 84.75 132.99 84.0667 132.623 83.45C132.273 82.8333 131.798 82.3417 131.198 81.975C130.598 81.6083 129.932 81.425 129.198 81.425C128.465 81.425 127.798 81.6083 127.198 81.975C126.598 82.3417 126.115 82.8333 125.748 83.45C125.398 84.0667 125.223 84.75 125.223 85.5C125.223 86.25 125.398 86.9333 125.748 87.55C126.115 88.1667 126.598 88.6583 127.198 89.025C127.798 89.3917 128.465 89.575 129.198 89.575ZM147.766 93.5C146.282 93.5 144.924 93.1417 143.691 92.425C142.457 91.7083 141.474 90.7417 140.741 89.525C140.024 88.3083 139.666 86.9667 139.666 85.5C139.666 84.0167 140.024 82.675 140.741 81.475C141.474 80.2583 142.457 79.2917 143.691 78.575C144.924 77.8583 146.282 77.5 147.766 77.5C149.266 77.5 150.624 77.8583 151.841 78.575C153.074 79.2917 154.049 80.2583 154.766 81.475C155.499 82.675 155.866 84.0167 155.866 85.5C155.866 86.9667 155.499 88.3083 154.766 89.525C154.049 90.7417 153.074 91.7083 151.841 92.425C150.624 93.1417 149.266 93.5 147.766 93.5ZM147.766 89.6C148.516 89.6 149.191 89.4167 149.791 89.05C150.407 88.6833 150.891 88.1917 151.241 87.575C151.607 86.9417 151.791 86.25 151.791 85.5C151.791 84.7333 151.607 84.0417 151.241 83.425C150.891 82.8083 150.407 82.3167 149.791 81.95C149.191 81.5833 148.516 81.4 147.766 81.4C147.016 81.4 146.332 81.5833 145.716 81.95C145.116 82.3167 144.632 82.8083 144.266 83.425C143.916 84.0417 143.741 84.7333 143.741 85.5C143.741 86.25 143.916 86.9417 144.266 87.575C144.632 88.1917 145.116 88.6833 145.716 89.05C146.332 89.4167 147.016 89.6 147.766 89.6Z" fill="white"/>
<path d="M1067.82 595.52H1062.96L1062.06 598H1060.53L1064.56 586.912H1066.24L1070.26 598H1068.72L1067.82 595.52ZM1067.41 594.336L1065.39 588.704L1063.38 594.336H1067.41ZM1073.47 586.16V598H1072.01V586.16H1073.47ZM1077.41 590.656C1077.66 590.155 1078.03 589.765 1078.49 589.488C1078.97 589.211 1079.56 589.072 1080.24 589.072V590.576H1079.85C1078.22 590.576 1077.41 591.461 1077.41 593.232V598H1075.95V589.232H1077.41V590.656ZM1089.92 593.28C1089.92 593.557 1089.9 593.851 1089.87 594.16H1082.86C1082.92 595.024 1083.21 595.701 1083.74 596.192C1084.29 596.672 1084.94 596.912 1085.71 596.912C1086.34 596.912 1086.86 596.768 1087.28 596.48C1087.71 596.181 1088 595.787 1088.18 595.296H1089.74C1089.51 596.139 1089.04 596.827 1088.34 597.36C1087.63 597.883 1086.76 598.144 1085.71 598.144C1084.88 598.144 1084.13 597.957 1083.47 597.584C1082.82 597.211 1082.31 596.683 1081.94 596C1081.56 595.307 1081.38 594.507 1081.38 593.6C1081.38 592.693 1081.56 591.899 1081.92 591.216C1082.28 590.533 1082.79 590.011 1083.44 589.648C1084.1 589.275 1084.86 589.088 1085.71 589.088C1086.54 589.088 1087.28 589.269 1087.92 589.632C1088.56 589.995 1089.05 590.496 1089.39 591.136C1089.74 591.765 1089.92 592.48 1089.92 593.28ZM1088.42 592.976C1088.42 592.421 1088.29 591.947 1088.05 591.552C1087.8 591.147 1087.47 590.843 1087.04 590.64C1086.62 590.427 1086.16 590.32 1085.65 590.32C1084.91 590.32 1084.28 590.555 1083.76 591.024C1083.25 591.493 1082.95 592.144 1082.88 592.976H1088.42ZM1091.3 593.584C1091.3 592.688 1091.48 591.904 1091.84 591.232C1092.2 590.549 1092.7 590.021 1093.33 589.648C1093.97 589.275 1094.68 589.088 1095.46 589.088C1096.23 589.088 1096.89 589.253 1097.46 589.584C1098.02 589.915 1098.44 590.331 1098.72 590.832V589.232H1100.19V598H1098.72V596.368C1098.43 596.88 1098 597.307 1097.43 597.648C1096.86 597.979 1096.2 598.144 1095.44 598.144C1094.66 598.144 1093.96 597.952 1093.33 597.568C1092.7 597.184 1092.2 596.645 1091.84 595.952C1091.48 595.259 1091.3 594.469 1091.3 593.584ZM1098.72 593.6C1098.72 592.939 1098.59 592.363 1098.32 591.872C1098.05 591.381 1097.69 591.008 1097.23 590.752C1096.79 590.485 1096.29 590.352 1095.75 590.352C1095.2 590.352 1094.71 590.48 1094.26 590.736C1093.81 590.992 1093.45 591.365 1093.19 591.856C1092.92 592.347 1092.79 592.923 1092.79 593.584C1092.79 594.256 1092.92 594.843 1093.19 595.344C1093.45 595.835 1093.81 596.213 1094.26 596.48C1094.71 596.736 1095.2 596.864 1095.75 596.864C1096.29 596.864 1096.79 596.736 1097.23 596.48C1097.69 596.213 1098.05 595.835 1098.32 595.344C1098.59 594.843 1098.72 594.261 1098.72 593.6ZM1102.11 593.584C1102.11 592.688 1102.29 591.904 1102.65 591.232C1103.02 590.549 1103.51 590.021 1104.14 589.648C1104.78 589.275 1105.5 589.088 1106.29 589.088C1106.97 589.088 1107.6 589.248 1108.19 589.568C1108.78 589.877 1109.22 590.288 1109.53 590.8V586.16H1111.01V598H1109.53V596.352C1109.25 596.875 1108.82 597.307 1108.25 597.648C1107.69 597.979 1107.03 598.144 1106.27 598.144C1105.49 598.144 1104.78 597.952 1104.14 597.568C1103.51 597.184 1103.02 596.645 1102.65 595.952C1102.29 595.259 1102.11 594.469 1102.11 593.584ZM1109.53 593.6C1109.53 592.939 1109.4 592.363 1109.13 591.872C1108.87 591.381 1108.5 591.008 1108.05 590.752C1107.6 590.485 1107.1 590.352 1106.56 590.352C1106.01 590.352 1105.52 590.48 1105.07 590.736C1104.62 590.992 1104.26 591.365 1104 591.856C1103.73 592.347 1103.6 592.923 1103.6 593.584C1103.6 594.256 1103.73 594.843 1104 595.344C1104.26 595.835 1104.62 596.213 1105.07 596.48C1105.52 596.736 1106.01 596.864 1106.56 596.864C1107.1 596.864 1107.6 596.736 1108.05 596.48C1108.5 596.213 1108.87 595.835 1109.13 595.344C1109.4 594.843 1109.53 594.261 1109.53 593.6ZM1121.02 589.232L1115.74 602.128H1114.23L1115.96 597.904L1112.43 589.232H1114.04L1116.79 596.336L1119.51 589.232H1121.02ZM1131.1 589.072C1131.76 589.072 1132.36 589.216 1132.89 589.504C1133.42 589.781 1133.84 590.203 1134.14 590.768C1134.45 591.333 1134.6 592.021 1134.6 592.832V598H1133.16V593.04C1133.16 592.165 1132.94 591.499 1132.51 591.04C1132.07 590.571 1131.47 590.336 1130.72 590.336C1129.95 590.336 1129.33 590.576 1128.88 591.056C1128.43 591.536 1128.2 592.235 1128.2 593.152V598H1126.75V586.16H1128.2V590.48C1128.49 590.032 1128.89 589.685 1129.39 589.44C1129.9 589.195 1130.47 589.072 1131.1 589.072ZM1136.44 593.584C1136.44 592.688 1136.62 591.904 1136.98 591.232C1137.34 590.549 1137.84 590.021 1138.47 589.648C1139.11 589.275 1139.82 589.088 1140.6 589.088C1141.37 589.088 1142.03 589.253 1142.6 589.584C1143.16 589.915 1143.58 590.331 1143.86 590.832V589.232H1145.33V598H1143.86V596.368C1143.57 596.88 1143.14 597.307 1142.57 597.648C1142 597.979 1141.34 598.144 1140.58 598.144C1139.8 598.144 1139.1 597.952 1138.47 597.568C1137.84 597.184 1137.34 596.645 1136.98 595.952C1136.62 595.259 1136.44 594.469 1136.44 593.584ZM1143.86 593.6C1143.86 592.939 1143.73 592.363 1143.46 591.872C1143.2 591.381 1142.83 591.008 1142.37 590.752C1141.93 590.485 1141.43 590.352 1140.89 590.352C1140.34 590.352 1139.85 590.48 1139.4 590.736C1138.95 590.992 1138.59 591.365 1138.33 591.856C1138.06 592.347 1137.93 592.923 1137.93 593.584C1137.93 594.256 1138.06 594.843 1138.33 595.344C1138.59 595.835 1138.95 596.213 1139.4 596.48C1139.85 596.736 1140.34 596.864 1140.89 596.864C1141.43 596.864 1141.93 596.736 1142.37 596.48C1142.83 596.213 1143.2 595.835 1143.46 595.344C1143.73 594.843 1143.86 594.261 1143.86 593.6ZM1151.06 596.656L1153.78 589.232H1155.33L1151.89 598H1150.19L1146.75 589.232H1148.32L1151.06 596.656ZM1164.76 593.28C1164.76 593.557 1164.75 593.851 1164.72 594.16H1157.71C1157.76 595.024 1158.05 595.701 1158.59 596.192C1159.13 596.672 1159.79 596.912 1160.56 596.912C1161.18 596.912 1161.71 596.768 1162.12 596.48C1162.55 596.181 1162.85 595.787 1163.02 595.296H1164.59C1164.35 596.139 1163.88 596.827 1163.18 597.36C1162.48 597.883 1161.6 598.144 1160.56 598.144C1159.72 598.144 1158.98 597.957 1158.32 597.584C1157.66 597.211 1157.15 596.683 1156.78 596C1156.41 595.307 1156.22 594.507 1156.22 593.6C1156.22 592.693 1156.4 591.899 1156.76 591.216C1157.13 590.533 1157.63 590.011 1158.28 589.648C1158.94 589.275 1159.7 589.088 1160.56 589.088C1161.39 589.088 1162.12 589.269 1162.76 589.632C1163.4 589.995 1163.89 590.496 1164.24 591.136C1164.59 591.765 1164.76 592.48 1164.76 593.28ZM1163.26 592.976C1163.26 592.421 1163.14 591.947 1162.89 591.552C1162.65 591.147 1162.31 590.843 1161.88 590.64C1161.47 590.427 1161 590.32 1160.49 590.32C1159.76 590.32 1159.13 590.555 1158.6 591.024C1158.09 591.493 1157.8 592.144 1157.72 592.976H1163.26ZM1170.41 593.584C1170.41 592.688 1170.59 591.904 1170.95 591.232C1171.31 590.549 1171.81 590.021 1172.44 589.648C1173.08 589.275 1173.79 589.088 1174.57 589.088C1175.33 589.088 1176 589.253 1176.57 589.584C1177.13 589.915 1177.55 590.331 1177.83 590.832V589.232H1179.3V598H1177.83V596.368C1177.54 596.88 1177.11 597.307 1176.53 597.648C1175.97 597.979 1175.31 598.144 1174.55 598.144C1173.77 598.144 1173.07 597.952 1172.44 597.568C1171.81 597.184 1171.31 596.645 1170.95 595.952C1170.59 595.259 1170.41 594.469 1170.41 593.584ZM1177.83 593.6C1177.83 592.939 1177.7 592.363 1177.43 591.872C1177.16 591.381 1176.8 591.008 1176.34 590.752C1175.89 590.485 1175.4 590.352 1174.85 590.352C1174.31 590.352 1173.81 590.48 1173.37 590.736C1172.92 590.992 1172.56 591.365 1172.29 591.856C1172.03 592.347 1171.89 592.923 1171.89 593.584C1171.89 594.256 1172.03 594.843 1172.29 595.344C1172.56 595.835 1172.92 596.213 1173.37 596.48C1173.81 596.736 1174.31 596.864 1174.85 596.864C1175.4 596.864 1175.89 596.736 1176.34 596.48C1176.8 596.213 1177.16 595.835 1177.43 595.344C1177.7 594.843 1177.83 594.261 1177.83 593.6ZM1186.04 589.072C1187.1 589.072 1187.97 589.397 1188.63 590.048C1189.29 590.688 1189.62 591.616 1189.62 592.832V598H1188.18V593.04C1188.18 592.165 1187.96 591.499 1187.52 591.04C1187.09 590.571 1186.49 590.336 1185.73 590.336C1184.96 590.336 1184.35 590.576 1183.89 591.056C1183.44 591.536 1183.22 592.235 1183.22 593.152V598H1181.76V589.232H1183.22V590.48C1183.51 590.032 1183.9 589.685 1184.39 589.44C1184.89 589.195 1185.44 589.072 1186.04 589.072ZM1195.72 593.584C1195.72 592.688 1195.9 591.904 1196.26 591.232C1196.63 590.549 1197.12 590.021 1197.75 589.648C1198.39 589.275 1199.1 589.088 1199.88 589.088C1200.65 589.088 1201.31 589.253 1201.88 589.584C1202.44 589.915 1202.87 590.331 1203.14 590.832V589.232H1204.62V598H1203.14V596.368C1202.86 596.88 1202.42 597.307 1201.85 597.648C1201.28 597.979 1200.62 598.144 1199.86 598.144C1199.08 598.144 1198.38 597.952 1197.75 597.568C1197.12 597.184 1196.63 596.645 1196.26 595.952C1195.9 595.259 1195.72 594.469 1195.72 593.584ZM1203.14 593.6C1203.14 592.939 1203.01 592.363 1202.74 591.872C1202.48 591.381 1202.11 591.008 1201.66 590.752C1201.21 590.485 1200.71 590.352 1200.17 590.352C1199.62 590.352 1199.13 590.48 1198.68 590.736C1198.23 590.992 1197.87 591.365 1197.61 591.856C1197.34 592.347 1197.21 592.923 1197.21 593.584C1197.21 594.256 1197.34 594.843 1197.61 595.344C1197.87 595.835 1198.23 596.213 1198.68 596.48C1199.13 596.736 1199.62 596.864 1200.17 596.864C1200.71 596.864 1201.21 596.736 1201.66 596.48C1202.11 596.213 1202.48 595.835 1202.74 595.344C1203.01 594.843 1203.14 594.261 1203.14 593.6ZM1206.53 593.6C1206.53 592.693 1206.71 591.904 1207.08 591.232C1207.44 590.549 1207.94 590.021 1208.58 589.648C1209.23 589.275 1209.97 589.088 1210.8 589.088C1211.88 589.088 1212.77 589.349 1213.46 589.872C1214.16 590.395 1214.63 591.12 1214.85 592.048H1213.28C1213.13 591.515 1212.84 591.093 1212.4 590.784C1211.98 590.475 1211.44 590.32 1210.8 590.32C1209.97 590.32 1209.3 590.608 1208.79 591.184C1208.28 591.749 1208.02 592.555 1208.02 593.6C1208.02 594.656 1208.28 595.472 1208.79 596.048C1209.3 596.624 1209.97 596.912 1210.8 596.912C1211.44 596.912 1211.98 596.763 1212.4 596.464C1212.83 596.165 1213.12 595.739 1213.28 595.184H1214.85C1214.62 596.08 1214.15 596.8 1213.44 597.344C1212.74 597.877 1211.86 598.144 1210.8 598.144C1209.97 598.144 1209.23 597.957 1208.58 597.584C1207.94 597.211 1207.44 596.683 1207.08 596C1206.71 595.317 1206.53 594.517 1206.53 593.6ZM1216.25 593.6C1216.25 592.693 1216.43 591.904 1216.79 591.232C1217.16 590.549 1217.66 590.021 1218.3 589.648C1218.95 589.275 1219.69 589.088 1220.52 589.088C1221.6 589.088 1222.49 589.349 1223.18 589.872C1223.88 590.395 1224.35 591.12 1224.57 592.048H1223C1222.85 591.515 1222.56 591.093 1222.12 590.784C1221.7 590.475 1221.16 590.32 1220.52 590.32C1219.69 590.32 1219.02 590.608 1218.51 591.184C1217.99 591.749 1217.74 592.555 1217.74 593.6C1217.74 594.656 1217.99 595.472 1218.51 596.048C1219.02 596.624 1219.69 596.912 1220.52 596.912C1221.16 596.912 1221.7 596.763 1222.12 596.464C1222.55 596.165 1222.84 595.739 1223 595.184H1224.57C1224.34 596.08 1223.87 596.8 1223.16 597.344C1222.46 597.877 1221.58 598.144 1220.52 598.144C1219.69 598.144 1218.95 597.957 1218.3 597.584C1217.66 597.211 1217.16 596.683 1216.79 596C1216.43 595.317 1216.25 594.517 1216.25 593.6ZM1230.34 598.144C1229.52 598.144 1228.77 597.957 1228.1 597.584C1227.44 597.211 1226.91 596.683 1226.53 596C1226.16 595.307 1225.97 594.507 1225.97 593.6C1225.97 592.704 1226.16 591.915 1226.55 591.232C1226.94 590.539 1227.47 590.011 1228.15 589.648C1228.82 589.275 1229.57 589.088 1230.4 589.088C1231.23 589.088 1231.99 589.275 1232.66 589.648C1233.33 590.011 1233.86 590.533 1234.24 591.216C1234.64 591.899 1234.83 592.693 1234.83 593.6C1234.83 594.507 1234.63 595.307 1234.23 596C1233.83 596.683 1233.29 597.211 1232.61 597.584C1231.93 597.957 1231.17 598.144 1230.34 598.144ZM1230.34 596.864C1230.86 596.864 1231.35 596.741 1231.81 596.496C1232.27 596.251 1232.64 595.883 1232.91 595.392C1233.2 594.901 1233.35 594.304 1233.35 593.6C1233.35 592.896 1233.21 592.299 1232.93 591.808C1232.65 591.317 1232.29 590.955 1231.84 590.72C1231.39 590.475 1230.91 590.352 1230.39 590.352C1229.85 590.352 1229.36 590.475 1228.91 590.72C1228.48 590.955 1228.12 591.317 1227.86 591.808C1227.59 592.299 1227.46 592.896 1227.46 593.6C1227.46 594.315 1227.59 594.917 1227.84 595.408C1228.11 595.899 1228.46 596.267 1228.9 596.512C1229.33 596.747 1229.81 596.864 1230.34 596.864ZM1244.52 589.232V598H1243.07V596.704C1242.79 597.152 1242.4 597.504 1241.9 597.76C1241.41 598.005 1240.86 598.128 1240.27 598.128C1239.58 598.128 1238.97 597.989 1238.43 597.712C1237.88 597.424 1237.45 596.997 1237.13 596.432C1236.82 595.867 1236.67 595.179 1236.67 594.368V589.232H1238.11V594.176C1238.11 595.04 1238.33 595.707 1238.76 596.176C1239.2 596.635 1239.8 596.864 1240.56 596.864C1241.33 596.864 1241.95 596.624 1242.4 596.144C1242.84 595.664 1243.07 594.965 1243.07 594.048V589.232H1244.52ZM1251.25 589.072C1252.32 589.072 1253.18 589.397 1253.85 590.048C1254.51 590.688 1254.84 591.616 1254.84 592.832V598H1253.4V593.04C1253.4 592.165 1253.18 591.499 1252.74 591.04C1252.3 590.571 1251.71 590.336 1250.95 590.336C1250.18 590.336 1249.57 590.576 1249.11 591.056C1248.66 591.536 1248.44 592.235 1248.44 593.152V598H1246.98V589.232H1248.44V590.48C1248.73 590.032 1249.12 589.685 1249.61 589.44C1250.11 589.195 1250.66 589.072 1251.25 589.072ZM1258.99 590.432V595.6C1258.99 596.027 1259.08 596.331 1259.26 596.512C1259.45 596.683 1259.76 596.768 1260.21 596.768H1261.28V598H1259.97C1259.16 598 1258.55 597.813 1258.14 597.44C1257.74 597.067 1257.54 596.453 1257.54 595.6V590.432H1256.4V589.232H1257.54V587.024H1258.99V589.232H1261.28V590.432H1258.99ZM1265.89 586.704C1266.95 586.704 1267.8 587.003 1268.45 587.6C1269.1 588.197 1269.43 588.997 1269.43 590C1269.43 591.12 1269.08 591.952 1268.39 592.496C1267.7 593.029 1266.76 593.296 1265.57 593.296L1265.52 594.816H1264.26L1264.2 592.288H1264.66C1265.72 592.288 1266.54 592.128 1267.14 591.808C1267.74 591.488 1268.04 590.885 1268.04 590C1268.04 589.36 1267.84 588.853 1267.46 588.48C1267.08 588.107 1266.56 587.92 1265.91 587.92C1265.25 587.92 1264.72 588.101 1264.34 588.464C1263.97 588.816 1263.78 589.301 1263.78 589.92H1262.4C1262.4 589.28 1262.55 588.72 1262.84 588.24C1263.12 587.749 1263.53 587.371 1264.05 587.104C1264.59 586.837 1265.2 586.704 1265.89 586.704ZM1264.88 598.096C1264.61 598.096 1264.37 598 1264.18 597.808C1263.99 597.616 1263.89 597.381 1263.89 597.104C1263.89 596.827 1263.99 596.592 1264.18 596.4C1264.37 596.208 1264.61 596.112 1264.88 596.112C1265.15 596.112 1265.38 596.208 1265.56 596.4C1265.75 596.592 1265.84 596.827 1265.84 597.104C1265.84 597.381 1265.75 597.616 1265.56 597.808C1265.38 598 1265.15 598.096 1264.88 598.096Z" fill="white"/>
<path d="M1277.16 596.816H1281.06V598H1275.7V586.848H1277.16V596.816ZM1286.43 598.144C1285.61 598.144 1284.86 597.957 1284.19 597.584C1283.53 597.211 1283.01 596.683 1282.62 596C1282.25 595.307 1282.06 594.507 1282.06 593.6C1282.06 592.704 1282.26 591.915 1282.64 591.232C1283.03 590.539 1283.57 590.011 1284.24 589.648C1284.91 589.275 1285.66 589.088 1286.5 589.088C1287.33 589.088 1288.08 589.275 1288.75 589.648C1289.42 590.011 1289.95 590.533 1290.34 591.216C1290.73 591.899 1290.93 592.693 1290.93 593.6C1290.93 594.507 1290.72 595.307 1290.32 596C1289.92 596.683 1289.39 597.211 1288.7 597.584C1288.02 597.957 1287.26 598.144 1286.43 598.144ZM1286.43 596.864C1286.95 596.864 1287.44 596.741 1287.9 596.496C1288.36 596.251 1288.73 595.883 1289.01 595.392C1289.3 594.901 1289.44 594.304 1289.44 593.6C1289.44 592.896 1289.3 592.299 1289.02 591.808C1288.75 591.317 1288.38 590.955 1287.94 590.72C1287.49 590.475 1287 590.352 1286.48 590.352C1285.95 590.352 1285.46 590.475 1285.01 590.72C1284.57 590.955 1284.22 591.317 1283.95 591.808C1283.68 592.299 1283.55 592.896 1283.55 593.6C1283.55 594.315 1283.68 594.917 1283.94 595.408C1284.2 595.899 1284.55 596.267 1284.99 596.512C1285.43 596.747 1285.91 596.864 1286.43 596.864ZM1296.46 589.088C1297.21 589.088 1297.88 589.253 1298.44 589.584C1299.02 589.915 1299.44 590.331 1299.72 590.832V589.232H1301.19V598.192C1301.19 598.992 1301.02 599.701 1300.68 600.32C1300.34 600.949 1299.85 601.44 1299.21 601.792C1298.58 602.144 1297.84 602.32 1297 602.32C1295.85 602.32 1294.89 602.048 1294.12 601.504C1293.35 600.96 1292.9 600.219 1292.76 599.28H1294.2C1294.36 599.813 1294.69 600.24 1295.19 600.56C1295.69 600.891 1296.3 601.056 1297 601.056C1297.8 601.056 1298.45 600.805 1298.95 600.304C1299.47 599.803 1299.72 599.099 1299.72 598.192V596.352C1299.43 596.864 1299.01 597.291 1298.44 597.632C1297.88 597.973 1297.21 598.144 1296.46 598.144C1295.68 598.144 1294.97 597.952 1294.33 597.568C1293.7 597.184 1293.2 596.645 1292.84 595.952C1292.48 595.259 1292.3 594.469 1292.3 593.584C1292.3 592.688 1292.48 591.904 1292.84 591.232C1293.2 590.549 1293.7 590.021 1294.33 589.648C1294.97 589.275 1295.68 589.088 1296.46 589.088ZM1299.72 593.6C1299.72 592.939 1299.59 592.363 1299.32 591.872C1299.05 591.381 1298.69 591.008 1298.23 590.752C1297.79 590.485 1297.29 590.352 1296.75 590.352C1296.2 590.352 1295.71 590.48 1295.26 590.736C1294.81 590.992 1294.45 591.365 1294.19 591.856C1293.92 592.347 1293.79 592.923 1293.79 593.584C1293.79 594.256 1293.92 594.843 1294.19 595.344C1294.45 595.835 1294.81 596.213 1295.26 596.48C1295.71 596.736 1296.2 596.864 1296.75 596.864C1297.29 596.864 1297.79 596.736 1298.23 596.48C1298.69 596.213 1299.05 595.835 1299.32 595.344C1299.59 594.843 1299.72 594.261 1299.72 593.6ZM1304.41 587.808C1304.13 587.808 1303.89 587.712 1303.7 587.52C1303.51 587.328 1303.41 587.093 1303.41 586.816C1303.41 586.539 1303.51 586.304 1303.7 586.112C1303.89 585.92 1304.13 585.824 1304.41 585.824C1304.67 585.824 1304.9 585.92 1305.08 586.112C1305.27 586.304 1305.37 586.539 1305.37 586.816C1305.37 587.093 1305.27 587.328 1305.08 587.52C1304.9 587.712 1304.67 587.808 1304.41 587.808ZM1305.11 589.232V598H1303.65V589.232H1305.11ZM1311.86 589.072C1312.93 589.072 1313.79 589.397 1314.46 590.048C1315.12 590.688 1315.45 591.616 1315.45 592.832V598H1314.01V593.04C1314.01 592.165 1313.79 591.499 1313.35 591.04C1312.91 590.571 1312.32 590.336 1311.56 590.336C1310.79 590.336 1310.18 590.576 1309.72 591.056C1309.27 591.536 1309.05 592.235 1309.05 593.152V598H1307.59V589.232H1309.05V590.48C1309.34 590.032 1309.72 589.685 1310.22 589.44C1310.72 589.195 1311.27 589.072 1311.86 589.072Z" fill="#518EF8"/>
</g>
<rect x="0.5" y="0.5" width="1495" height="733" stroke="black"/>
<defs>
<filter id="filter0_d_2_2" x="183.9" y="-175.26" width="991.2" height="1021.2" filterUnits="userSpaceOnUse" color-interpolation-filters="sRGB">
<feFlood flood-opacity="0" result="BackgroundImageFix"/>
<feColorMatrix in="SourceAlpha" type="matrix" values="0 0 0 0 0 0 0 0 0 0 0 0 0 0 0 0 0 0 127 0" result="hardAlpha"/>
<feMorphology radius="1" operator="erode" in="SourceAlpha" result="effect1_dropShadow_2_2"/>
<feOffset dx="4" dy="16.84"/>
<feGaussianBlur stdDeviation="18.05"/>
<feComposite in2="hardAlpha" operator="out"/>
<feColorMatrix type="matrix" values="0 0 0 0 0.279328 0 0 0 0 0.351252 0 0 0 0 0.611667 0 0 0 1 0"/>
<feBlend mode="normal" in2="BackgroundImageFix" result="effect1_dropShadow_2_2"/>
<feBlend mode="normal" in="SourceGraphic" in2="effect1_dropShadow_2_2" result="shape"/>
</filter>
<filter id="filter1_d_2_2" x="-239.1" y="-237.26" width="1089.02" height="1021.66" filterUnits="userSpaceOnUse" color-interpolation-filters="sRGB">
<feFlood flood-opacity="0" result="BackgroundImageFix"/>
<feColorMatrix in="SourceAlpha" type="matrix" values="0 0 0 0 0 0 0 0 0 0 0 0 0 0 0 0 0 0 127 0" result="hardAlpha"/>
<feMorphology radius="1" operator="erode" in="SourceAlpha" result="effect1_dropShadow_2_2"/>
<feOffset dx="4" dy="16.84"/>
<feGaussianBlur stdDeviation="18.05"/>
<feComposite in2="hardAlpha" operator="out"/>
<feColorMatrix type="matrix" values="0 0 0 0 0 0 0 0 0 0 0 0 0 0 0 0 0 0 0.11 0"/>
<feBlend mode="normal" in2="BackgroundImageFix" result="effect1_dropShadow_2_2"/>
<feBlend mode="normal" in="SourceGraphic" in2="effect1_dropShadow_2_2" result="shape"/>
</filter>
<filter id="filter2_d_2_2" x="-198.99" y="-201.883" width="783.98" height="739.55" filterUnits="userSpaceOnUse" color-interpolation-filters="sRGB">
<feFlood flood-opacity="0" result="BackgroundImageFix"/>
<feColorMatrix in="SourceAlpha" type="matrix" values="0 0 0 0 0 0 0 0 0 0 0 0 0 0 0 0 0 0 127 0" result="hardAlpha"/>
<feMorphology radius="26" operator="dilate" in="SourceAlpha" result="effect1_dropShadow_2_2"/>
<feOffset dy="11.1074"/>
<feGaussianBlur stdDeviation="14.995"/>
<feComposite in2="hardAlpha" operator="out"/>
<feColorMatrix type="matrix" values="0 0 0 0 0.0532851 0 0 0 0 0 0 0 0 0 0.204948 0 0 0 0.26 0"/>
<feBlend mode="normal" in2="BackgroundImageFix" result="effect1_dropShadow_2_2"/>
<feBlend mode="normal" in="SourceGraphic" in2="effect1_dropShadow_2_2" result="shape"/>
</filter>
<filter id="filter3_d_2_2" x="-90.5929" y="-99.3717" width="391.071" height="370.186" filterUnits="userSpaceOnUse" color-interpolation-filters="sRGB">
<feFlood flood-opacity="0" result="BackgroundImageFix"/>
<feColorMatrix in="SourceAlpha" type="matrix" values="0 0 0 0 0 0 0 0 0 0 0 0 0 0 0 0 0 0 127 0" result="hardAlpha"/>
<feMorphology radius="23.4956" operator="dilate" in="SourceAlpha" result="effect1_dropShadow_2_2"/>
<feOffset dy="5.22124"/>
<feGaussianBlur stdDeviation="7.04867"/>
<feComposite in2="hardAlpha" operator="out"/>
<feColorMatrix type="matrix" values="0 0 0 0 0.0532851 0 0 0 0 0 0 0 0 0 0.204948 0 0 0 0.26 0"/>
<feBlend mode="normal" in2="BackgroundImageFix" result="effect1_dropShadow_2_2"/>
<feBlend mode="normal" in="SourceGraphic" in2="effect1_dropShadow_2_2" result="shape"/>
</filter>
<linearGradient id="paint0_linear_2_2" x1="215" y1="-123.816" x2="1214.22" y2="661.256" gradientUnits="userSpaceOnUse">
<stop offset="1" stop-color="#001A78"/>
</linearGradient>
<linearGradient id="paint1_linear_2_2" x1="-208" y1="-185.8" x2="810.823" y2="699.263" gradientUnits="userSpaceOnUse">
<stop offset="1" stop-color="#001A78"/>
</linearGradient>
<linearGradient id="paint2_linear_2_2" x1="-143" y1="-135.102" x2="529" y2="448.672" gradientUnits="userSpaceOnUse">
<stop offset="0.699" stop-color="#2A408F"/>
</linearGradient>
<linearGradient id="paint3_linear_2_2" x1="-53" y1="-56.7064" x2="262.885" y2="217.706" gradientUnits="userSpaceOnUse">
<stop offset="1" stop-color="#475A9C"/>
</linearGradient>
<linearGradient id="paint4_linear_2_2" x1="-462.706" y1="-346.829" x2="1413.2" y2="833.282" gradientUnits="userSpaceOnUse">
<stop offset="1" stop-color="#F0EFEF" stop-opacity="0.8"/>
</linearGradient>
<linearGradient id="paint5_linear_2_2" x1="-471.512" y1="-344.021" x2="1421.71" y2="811.203" gradientUnits="userSpaceOnUse">
<stop offset="1" stop-color="#F0EFEF" stop-opacity="0.8095"/>
</linearGradient>
<linearGradient id="paint6_linear_2_2" x1="-480.038" y1="-340.946" x2="1430.35" y2="788.178" gradientUnits="userSpaceOnUse">
<stop offset="1" stop-color="#F0EFEF" stop-opacity="0.819"/>
</linearGradient>
<linearGradient id="paint7_linear_2_2" x1="-488.206" y1="-337.588" x2="1438.82" y2="764.89" gradientUnits="userSpaceOnUse">
<stop offset="1" stop-color="#F0EFEF" stop-opacity="0.8286"/>
</linearGradient>
<linearGradient id="paint8_linear_2_2" x1="-496.028" y1="-334.004" x2="1446.59" y2="741.412" gradientUnits="userSpaceOnUse">
<stop offset="1" stop-color="#F0EFEF" stop-opacity="0.8381"/>
</linearGradient>
<linearGradient id="paint9_linear_2_2" x1="-503.452" y1="-330.183" x2="1454.04" y2="717.406" gradientUnits="userSpaceOnUse">
<stop offset="1" stop-color="#F0EFEF" stop-opacity="0.8476"/>
</linearGradient>
<linearGradient id="paint10_linear_2_2" x1="-510.502" y1="-326.124" x2="1461.2" y2="693.402" gradientUnits="userSpaceOnUse">
<stop offset="1" stop-color="#F0EFEF" stop-opacity="0.8571"/>
</linearGradient>
<linearGradient id="paint11_linear_2_2" x1="-517.137" y1="-321.875" x2="1467.79" y2="668.827" gradientUnits="userSpaceOnUse">
<stop offset="1" stop-color="#F0EFEF" stop-opacity="0.8667"/>
</linearGradient>
<linearGradient id="paint12_linear_2_2" x1="-523.362" y1="-317.422" x2="1474.13" y2="644.07" gradientUnits="userSpaceOnUse">
<stop offset="1" stop-color="#F0EFEF" stop-opacity="0.8762"/>
</linearGradient>
<linearGradient id="paint13_linear_2_2" x1="-530.26" y1="-310.496" x2="1478.65" y2="621.54" gradientUnits="userSpaceOnUse">
<stop offset="1" stop-color="#F0EFEF" stop-opacity="0.8857"/>
</linearGradient>
<linearGradient id="paint14_linear_2_2" x1="-543.183" y1="-288.759" x2="1476.3" y2="613.226" gradientUnits="userSpaceOnUse">
<stop offset="1" stop-color="#F0EFEF" stop-opacity="0.8952"/>
</linearGradient>
<linearGradient id="paint15_linear_2_2" x1="-555.181" y1="-266.708" x2="1474.11" y2="605.174" gradientUnits="userSpaceOnUse">
<stop offset="1" stop-color="#F0EFEF" stop-opacity="0.9048"/>
</linearGradient>
<linearGradient id="paint16_linear_2_2" x1="-566.21" y1="-244.415" x2="1471.81" y2="596.79" gradientUnits="userSpaceOnUse">
<stop offset="1" stop-color="#F0EFEF" stop-opacity="0.9143"/>
</linearGradient>
<linearGradient id="paint17_linear_2_2" x1="-576.293" y1="-221.89" x2="1469.67" y2="588.664" gradientUnits="userSpaceOnUse">
<stop offset="1" stop-color="#F0EFEF" stop-opacity="0.9238"/>
</linearGradient>
<linearGradient id="paint18_linear_2_2" x1="-585.387" y1="-199.203" x2="1467.41" y2="580.207" gradientUnits="userSpaceOnUse">
<stop offset="1" stop-color="#F0EFEF" stop-opacity="0.9333"/>
</linearGradient>
<linearGradient id="paint19_linear_2_2" x1="-593.505" y1="-176.362" x2="1465.38" y2="571.79" gradientUnits="userSpaceOnUse">
<stop offset="1" stop-color="#F0EFEF" stop-opacity="0.9429"/>
</linearGradient>
<linearGradient id="paint20_linear_2_2" x1="-600.666" y1="-153.446" x2="1463.08" y2="563.482" gradientUnits="userSpaceOnUse">
<stop offset="1" stop-color="#F0EFEF" stop-opacity="0.9524"/>
</linearGradient>
<linearGradient id="paint21_linear_2_2" x1="-606.828" y1="-130.474" x2="1460.87" y2="554.921" gradientUnits="userSpaceOnUse">
<stop offset="1" stop-color="#F0EFEF" stop-opacity="0.9619"/>
</linearGradient>
<linearGradient id="paint22_linear_2_2" x1="-612.037" y1="-107.466" x2="1458.8" y2="546.625" gradientUnits="userSpaceOnUse">
<stop offset="1" stop-color="#F0EFEF" stop-opacity="0.9714"/>
</linearGradient>
<linearGradient id="paint23_linear_2_2" x1="-616.251" y1="-84.5052" x2="1456.61" y2="537.999" gradientUnits="userSpaceOnUse">
<stop offset="1" stop-color="#F0EFEF" stop-opacity="0.981"/>
</linearGradient>
<linearGradient id="paint24_linear_2_2" x1="-619.529" y1="-61.5785" x2="1454.55" y2="529.649" gradientUnits="userSpaceOnUse">
<stop offset="1" stop-color="#F0EFEF" stop-opacity="0.9905"/>
</linearGradient>
<clipPath id="clip0_2_2">
<rect width="1496" height="734" fill="white"/>
</clipPath>
<clipPath id="clip1_2_2">
<rect width="32" height="30" fill="white" transform="translate(1028 310)"/>
</clipPath>
</defs>
</svg>
